<svg width="18" height="18" viewBox="0 0 18 18" fill="none" xmlns="http://www.w3.org/2000/svg">
<path d="M15.4908 1.29808H13.5436V0.649038C13.5436 0.4769 13.4752 0.311818 13.3535 0.190097C13.2318 0.0683827 13.0667 0 12.8946 0C12.7225 0 12.5574 0.0683827 12.4357 0.190097C12.314 0.311818 12.2456 0.4769 12.2456 0.649038V1.29808H5.75518V0.649038C5.75518 0.4769 5.68677 0.311818 5.56508 0.190097C5.44339 0.0683827 5.27827 0 5.10615 0C4.93401 0 4.76892 0.0683827 4.6472 0.190097C4.52549 0.311818 4.45711 0.4769 4.45711 0.649038V1.29808H2.50999C2.16572 1.29808 1.83555 1.43484 1.59211 1.67828C1.34867 1.92171 1.21191 2.25188 1.21191 2.59615V15.5769C1.21191 15.9212 1.34867 16.2513 1.59211 16.4948C1.83555 16.7382 2.16572 16.875 2.50999 16.875H15.4908C15.835 16.875 16.1652 16.7382 16.4086 16.4948C16.6521 16.2513 16.7888 15.9212 16.7888 15.5769V2.59615C16.7888 2.25188 16.6521 1.92171 16.4086 1.67828C16.1652 1.43484 15.835 1.29808 15.4908 1.29808ZM12.3673 9.55709L8.5785 13.1268C8.51957 13.1846 8.44986 13.2301 8.37328 13.2607C8.29669 13.2913 8.21478 13.3065 8.13229 13.3053C7.966 13.3059 7.80602 13.2419 7.68607 13.1268L5.63349 11.1797C5.56755 11.1222 5.51394 11.0519 5.47584 10.9731C5.43774 10.8944 5.416 10.8087 5.41184 10.7213C5.40775 10.6339 5.42132 10.5466 5.45176 10.4645C5.48226 10.3825 5.52899 10.3075 5.58922 10.244C5.64946 10.1806 5.72182 10.1299 5.80211 10.0951C5.8824 10.0603 5.96891 10.0421 6.0564 10.0416C6.14389 10.0411 6.2306 10.0583 6.31128 10.0921C6.39196 10.126 6.46497 10.1758 6.52592 10.2386L8.13229 11.7638L11.4748 8.61598C11.5361 8.55647 11.6087 8.5098 11.6883 8.47871C11.7679 8.44769 11.8529 8.43283 11.9383 8.4351C12.0238 8.43737 12.1078 8.45671 12.1857 8.49195C12.2635 8.5272 12.3336 8.57763 12.3916 8.64032C12.5098 8.7652 12.5737 8.93187 12.569 9.10374C12.5645 9.2756 12.4919 9.43864 12.3673 9.55709ZM15.4908 5.19231H2.50999V2.59615H4.45711V3.24519C4.45711 3.41733 4.52549 3.58241 4.6472 3.70413C4.76892 3.82585 4.93401 3.89423 5.10615 3.89423C5.27827 3.89423 5.44339 3.82585 5.56508 3.70413C5.68677 3.58241 5.75518 3.41733 5.75518 3.24519V2.59615H12.2456V3.24519C12.2456 3.41733 12.314 3.58241 12.4357 3.70413C12.5574 3.82585 12.7225 3.89423 12.8946 3.89423C13.0667 3.89423 13.2318 3.82585 13.3535 3.70413C13.4752 3.58241 13.5436 3.41733 13.5436 3.24519V2.59615H15.4908V5.19231Z" fill="white"/>
</svg>
