<svg width="221" height="145" viewBox="0 0 221 145" fill="none" xmlns="http://www.w3.org/2000/svg">
<g clip-path="url(#clip0_181_661)">
<path d="M51.2139 144.783V127.599H54.1116V134.729H62.3705V127.599H65.2682V144.783H62.3705V137.294H54.1116V144.783H51.2139Z" fill="white"/>
<path d="M74.2461 144.783V127.599H86.4031V130.164H77.1438V134.73H84.8127V137.296H77.1438V142.22H86.4031V144.785H74.2461V144.783Z" fill="white"/>
<path d="M91.9967 144.783L98.7161 127.599H102.05L108.769 144.783H105.588L103.947 140.448H96.6884L95.0471 144.783H91.9951H91.9967ZM97.6394 137.935H103.001L101.256 133.293L100.332 130.19L99.408 133.293L97.6378 137.935H97.6394Z" fill="white"/>
<path d="M118.875 144.783L112.592 127.599H115.9L119.311 137.628L120.593 142.577L121.9 137.628L125.312 127.599H128.467L122.183 144.783H118.875Z" fill="white"/>
<path d="M134.753 144.783V127.599H146.91V130.164H137.651V134.73H145.32V137.296H137.651V142.22H146.91V144.785H134.753V144.783Z" fill="white"/>
<path d="M154.271 144.783V127.599H156.964L163.914 137.601L165.606 140.294L165.426 137.036V127.597H168.324V144.782H165.657L158.527 134.625L156.962 132.189L157.167 135.317V144.782H154.27L154.271 144.783Z" fill="white"/>
<path d="M0 92.9555C0 82.9153 6.03556 75.0587 16.7517 75.0587C24.4508 75.0587 29.7579 79.0124 32.2024 85.8273L27.1035 89.5727C26.0109 84.318 22.7856 80.6235 16.8025 80.6235C9.62349 80.6235 6.24072 85.7223 6.24072 92.9539C6.24072 100.185 9.6219 105.284 16.8025 105.284C22.7856 105.284 26.0109 101.539 27.1035 96.335L32.2024 100.08C29.7563 106.844 24.4508 110.849 16.7517 110.849C6.03397 110.849 0 102.992 0 92.9523L0 92.9555Z" fill="white"/>
<path d="M36.8857 110.437V75.5804H42.7639V90.0435H59.5155V75.5804H65.3936V110.437H59.5155V95.2457H42.7639V110.437H36.8857Z" fill="white"/>
<path d="M67.7363 110.437L81.366 75.5804H88.13L101.761 110.437H95.3106L91.9803 101.645H77.258L73.9277 110.437H67.7363ZM79.1808 96.545H90.0544L86.5173 87.1283L84.6438 80.8335L82.7704 87.1283L79.1808 96.545Z" fill="white"/>
<path d="M104.101 110.437V75.5804H119.813C126.888 75.5804 132.194 79.2224 132.194 86.4015C132.194 92.2287 128.188 95.6624 122.725 96.2858C124.805 96.9108 126.211 98.2102 127.459 100.395L133.39 110.436H126.626L120.59 100.082C119.289 97.741 117.521 96.9092 114.243 96.9092H109.978V110.436H104.1L104.101 110.437ZM109.979 80.7826V92.1237H119.24C122.935 92.1237 126.108 90.7719 126.108 86.5573C126.108 82.136 122.935 80.7826 119.24 80.7826H109.979Z" fill="white"/>
<path d="M143.535 110.437V80.7826H132.87V75.5804H160.131V80.7826H149.413V110.437H143.535Z" fill="white"/>
<path d="M162.524 110.437V75.5804H187.184V80.7826H168.403V90.0435H183.958V95.2457H168.403V105.235H187.184V110.437H162.524Z" fill="white"/>
<path d="M191.71 110.437V75.5804H207.421C214.497 75.5804 219.802 79.2224 219.802 86.4015C219.802 92.2287 215.796 95.6624 210.333 96.2858C212.413 96.9108 213.819 98.2102 215.068 100.395L220.998 110.436H214.234L208.199 100.082C206.898 97.741 205.129 96.9092 201.852 96.9092H197.586V110.436H191.708L191.71 110.437ZM197.588 80.7826V92.1237H206.849C210.543 92.1237 213.716 90.7719 213.716 86.5573C213.716 82.136 210.543 80.7826 206.849 80.7826H197.588Z" fill="white"/>
<path d="M120.482 -0.000335693L114.827 9.65815C114.833 9.78856 116.974 10.3977 117.282 10.5201C119.038 11.2167 121.155 12.4827 122.632 13.658C122.953 13.9125 124.366 15.3438 124.488 15.3724C124.662 15.4106 124.693 15.277 124.77 15.1736C125.501 14.1781 126.152 12.656 126.758 11.5634H131.556L127.381 19.0065C129.019 21.9376 130.325 25.1311 130.449 28.5409H126.882C127.015 27.8348 125.638 22.7551 125.221 22.7614L119.42 32.5805L101.785 32.2911L92.93 47.7323H88.1317L91.4286 41.9893C85.3183 32.4867 87.5401 19.9337 96.5799 13.1841C100.637 10.1559 105.47 8.87249 110.521 8.91861L115.746 -0.000335693H120.482ZM117.136 28.3914L122.653 18.7616C116.683 11.7447 106.603 10.6108 99.0371 15.8925C92.4624 20.4824 89.6585 29.4188 92.8679 36.9032C92.9872 37.18 93.3307 38.3028 93.6679 38.0801L106.725 15.4599C107.356 14.679 109.739 14.7188 110.674 14.916C110.846 14.9526 111.616 15.188 111.623 15.3168L104.246 28.1735L117.137 28.393L117.136 28.3914Z" fill="white"/>
<path d="M118.514 34.1997L110.764 47.8548C116.518 47.4938 122.02 43.9647 124.664 38.8754H128.725C123.438 51.4348 106.604 55.6907 96.0596 46.8751L97.7263 43.6737C100.136 45.6044 102.973 47.1598 106.074 47.5956L113.716 34.1997H118.514Z" fill="#D29968"/>
<path d="M118.514 34.1997L110.764 47.8548C116.518 47.4938 122.02 43.9647 124.664 38.8754H128.725C123.438 51.4348 106.604 55.6907 96.0596 46.8751L97.7263 43.6737C100.136 45.6044 102.973 47.1598 106.074 47.5956L113.716 34.1997H118.514Z" fill="url(#paint0_linear_181_661)"/>
<path d="M118.514 34.1997L110.764 47.8548C116.518 47.4938 122.02 43.9647 124.664 38.8754H128.725C123.438 51.4348 106.604 55.6907 96.0596 46.8751L97.7263 43.6737C100.136 45.6044 102.973 47.1598 106.074 47.5956L113.716 34.1997H118.514Z" fill="url(#paint1_linear_181_661)"/>
<path d="M99.2012 59.5427L103.219 52.5211C104.605 52.8774 106.006 53.205 107.444 53.2686L104.001 59.5427H99.2028H99.2012Z" fill="#D29968"/>
<path d="M99.2012 59.5427L103.219 52.5211C104.605 52.8774 106.006 53.205 107.444 53.2686L104.001 59.5427H99.2028H99.2012Z" fill="url(#paint2_linear_181_661)"/>
<path d="M99.2012 59.5427L103.219 52.5211C104.605 52.8774 106.006 53.205 107.444 53.2686L104.001 59.5427H99.2028H99.2012Z" fill="url(#paint3_linear_181_661)"/>
<path d="M40.3838 59.5429V51.8708H45.8118V53.0159H41.6768V55.0548H45.1009V56.1998H41.6768V58.3994H45.8118V59.5445H40.3838V59.5429Z" fill="white"/>
<path d="M46.4082 57.8363L47.3243 56.9091C47.7362 58.0319 48.894 58.4661 49.8323 58.4661C50.5989 58.4661 51.2176 58.191 51.2176 57.4928C51.2176 56.7485 50.5989 56.5417 49.6033 56.3254L48.8813 56.1648C47.7934 55.9358 46.6372 55.4428 46.6372 53.9891C46.6372 52.5355 47.8857 51.7674 49.3282 51.7674C50.7707 51.7674 51.8585 52.351 52.4088 53.4055L51.4355 54.3327C51.0124 53.3816 50.187 52.9697 49.2487 52.9697C48.5155 52.9697 47.9891 53.3132 47.9891 53.8969C47.9891 54.5728 48.5155 54.813 49.352 55.0197L50.2108 55.2265C51.437 55.5239 52.536 56.0058 52.536 57.4705C52.536 58.8558 51.3687 59.6573 49.8101 59.6573C48.3437 59.6573 47.0046 59.1309 46.4082 57.8363Z" fill="white"/>
<path d="M54.9392 59.5429V53.0159H52.5918V51.8708H58.5924V53.0159H56.2338V59.5429H54.9392Z" fill="white"/>
<path d="M58.5332 59.5427V57.9158H59.9995V59.5427H58.5332Z" fill="white"/>
<path d="M152.443 59.5427V58.5582L155.088 56.039C155.832 55.317 156.359 54.7333 156.359 54.0128C156.359 53.4626 156.037 52.9934 155.293 52.9934C154.159 52.9934 153.45 53.7154 153.518 55.1929L152.43 54.4136C152.395 52.8789 153.644 51.7561 155.408 51.7561C156.953 51.7561 157.709 52.6721 157.709 53.9317C157.709 55.1913 156.61 56.233 155.796 56.909L154.73 57.8473L153.836 58.5121L154.981 58.3976H157.925V59.5427H152.44H152.443Z" fill="white"/>
<path d="M158.766 55.6955C158.766 53.4514 159.853 51.7561 161.996 51.7561C164.138 51.7561 165.213 53.4514 165.213 55.6955C165.213 57.9395 164.136 59.646 161.996 59.646C159.855 59.646 158.766 57.9507 158.766 55.6955ZM163.861 55.6955C163.861 54.0924 163.368 52.9807 161.994 52.9807C160.62 52.9807 160.127 54.0924 160.127 55.6955C160.127 57.2986 160.631 58.4103 161.994 58.4103C163.357 58.4103 163.861 57.3113 163.861 55.6955Z" fill="white"/>
<path d="M166.288 59.5427V58.5582L168.933 56.039C169.677 55.317 170.203 54.7333 170.203 54.0128C170.203 53.4626 169.882 52.9934 169.138 52.9934C168.004 52.9934 167.295 53.7154 167.363 55.1929L166.275 54.4136C166.24 52.8789 167.489 51.7561 169.252 51.7561C170.798 51.7561 171.554 52.6721 171.554 53.9317C171.554 55.1913 170.455 56.233 169.64 56.909L168.575 57.8473L167.681 58.5121L168.826 58.3976H171.77V59.5427H166.285H166.288Z" fill="white"/>
<path d="M172.769 57.8822L173.799 56.885C174.063 57.8361 174.737 58.4086 175.724 58.4086C176.651 58.4086 177.155 57.8583 177.155 56.9661C177.155 55.8894 176.433 55.4552 175.644 55.4552C174.911 55.4552 174.396 55.7638 174.327 56.2568L174.316 56.3602L173.056 56.2345L173.308 51.8721H177.969V53.0633H174.545L174.362 55.7542C174.602 55.0672 175.221 54.5169 176.24 54.5169C177.694 54.5169 178.542 55.5014 178.542 57.025C178.542 58.5486 177.454 59.6587 175.712 59.6587C174.246 59.6587 173.158 58.8794 172.769 57.8838V57.8822Z" fill="white"/>
</g>
<defs>
<linearGradient id="paint0_linear_181_661" x1="112.392" y1="34.1997" x2="112.392" y2="51.5363" gradientUnits="userSpaceOnUse">
<stop stop-color="#FDFAB7"/>
<stop offset="1" stop-color="#B38E3D"/>
</linearGradient>
<linearGradient id="paint1_linear_181_661" x1="112.392" y1="34.1997" x2="112.392" y2="51.5363" gradientUnits="userSpaceOnUse">
<stop stop-color="#B38E3D"/>
<stop offset="0.471154" stop-color="#FDFAB7"/>
<stop offset="1" stop-color="#B38E3D"/>
</linearGradient>
<linearGradient id="paint2_linear_181_661" x1="103.323" y1="52.5211" x2="103.323" y2="59.5427" gradientUnits="userSpaceOnUse">
<stop stop-color="#FDFAB7"/>
<stop offset="1" stop-color="#B38E3D"/>
</linearGradient>
<linearGradient id="paint3_linear_181_661" x1="103.323" y1="52.5211" x2="103.323" y2="59.5427" gradientUnits="userSpaceOnUse">
<stop stop-color="#B38E3D"/>
<stop offset="0.471154" stop-color="#FDFAB7"/>
<stop offset="1" stop-color="#B38E3D"/>
</linearGradient>
<clipPath id="clip0_181_661">
<rect width="221" height="144.783" fill="white"/>
</clipPath>
</defs>
</svg>
