<svg width="458" height="470" viewBox="0 0 458 470" fill="none" xmlns="http://www.w3.org/2000/svg">
<g clip-path="url(#clip0_212_196)">
<path d="M106.055 469.47V433.884H112.055V448.649H129.158V433.884H135.159V469.47H129.158V453.961H112.055V469.47H106.055Z" fill="#262E45"/>
<path d="M153.751 469.47V433.884H178.926V439.197H159.752V448.652H175.633V453.964H159.752V464.161H178.926V469.473H153.751V469.47Z" fill="#262E45"/>
<path d="M190.509 469.47L204.424 433.884H211.33L225.245 469.47H218.658L215.259 460.495H200.228L196.829 469.47H190.509ZM202.194 455.288H213.296L209.683 445.675L207.77 439.249L205.856 445.675L202.191 455.288H202.194Z" fill="#262E45"/>
<path d="M246.171 469.47L233.158 433.884H240.009L247.073 454.653L249.727 464.902L252.435 454.653L259.499 433.884H266.033L253.021 469.47H246.171Z" fill="#262E45"/>
<path d="M279.049 469.47V433.884H304.224V439.197H285.049V448.652H300.93V453.964H285.049V464.161H304.224V469.473H279.049V469.47Z" fill="#262E45"/>
<path d="M319.47 469.47V433.884H325.046L339.438 454.6L342.942 460.176L342.57 453.431V433.884H348.571V469.47H343.048L328.283 448.438L325.043 443.393L325.467 449.871V469.47H319.467H319.47Z" fill="#262E45"/>
<path d="M0 361.28C0 340.489 12.4986 324.219 34.6898 324.219C50.6333 324.219 61.6236 332.407 66.6856 346.519L56.1268 354.275C53.8642 343.394 47.1851 335.746 34.7952 335.746C19.9286 335.746 12.9268 346.305 12.9268 361.28C12.9268 376.256 19.9286 386.814 34.7952 386.814C47.1851 386.814 53.8642 379.058 56.1268 368.286L66.6856 376.042C61.6203 390.049 50.6333 398.342 34.6898 398.342C12.4953 398.342 0 382.072 0 361.28Z" fill="#262E45"/>
<path d="M76.3848 397.479V325.296H88.5573V355.247H123.247V325.296H135.42V397.479H123.247V366.02H88.5573V397.479H76.3848Z" fill="#262E45"/>
<path d="M140.271 397.479L168.495 325.296H182.502L210.73 397.479H197.372L190.476 379.273H159.988L153.092 397.479H140.271ZM163.97 368.714H186.487L179.163 349.213L175.283 336.178L171.403 349.213L163.97 368.714Z" fill="#262E45"/>
<path d="M215.575 397.479V325.296H248.11C262.763 325.296 273.75 332.838 273.75 347.705C273.75 359.772 265.454 366.883 254.141 368.174C258.449 369.468 261.36 372.159 263.945 376.684L276.227 397.475H262.22L249.721 376.035C247.027 371.187 243.365 369.465 236.577 369.465H227.744V397.475H215.571L215.575 397.479ZM227.747 336.073V359.558H246.925C254.576 359.558 261.146 356.759 261.146 348.031C261.146 338.875 254.576 336.073 246.925 336.073H227.747Z" fill="#262E45"/>
<path d="M297.236 397.479V336.069H275.15V325.296H331.603V336.069H309.409V397.479H297.236Z" fill="#262E45"/>
<path d="M336.56 397.479V325.296H387.624V336.069H348.732V355.247H380.945V366.02H348.732V386.706H387.624V397.479H336.56Z" fill="#262E45"/>
<path d="M396.997 397.479V325.296H429.533C444.186 325.296 455.173 332.838 455.173 347.705C455.173 359.772 446.877 366.883 435.564 368.174C439.871 369.468 442.783 372.159 445.368 376.684L457.649 397.475H443.642L431.144 376.035C428.45 371.187 424.787 369.465 418 369.465H409.167V397.475H396.994L396.997 397.479ZM409.17 336.073V359.558H428.348C435.998 359.558 442.569 356.759 442.569 348.031C442.569 338.875 435.998 336.073 428.348 336.073H409.17Z" fill="#262E45"/>
<path d="M276.072 0L250.33 43.9575C250.357 44.5504 260.105 47.3267 261.505 47.8833C269.495 51.0549 279.128 56.8151 285.854 62.167C287.313 63.3296 293.741 69.844 294.301 69.9691C295.088 70.147 295.233 69.5344 295.579 69.0634C298.909 64.535 301.87 57.6056 304.623 52.6325H326.458L307.455 86.5088C314.908 99.8472 320.853 114.388 321.419 129.903H305.183C305.792 126.685 299.525 103.572 297.624 103.598L271.217 148.294L190.953 146.976L150.648 217.255H128.812L143.821 191.118C116.011 147.866 126.122 90.731 167.27 60.0164C185.736 46.2333 207.736 40.3907 230.725 40.6015L254.516 0H276.072ZM260.843 129.225L285.956 85.3956C258.785 53.4591 212.901 48.2983 178.471 72.3371C148.543 93.2307 135.785 133.905 150.391 167.965C150.931 169.224 152.499 174.338 154.03 173.321L213.457 70.3676C216.329 66.8107 227.171 66.9919 231.429 67.891C232.21 68.0556 235.714 69.126 235.75 69.7122L202.171 128.227L260.846 129.228L260.843 129.225Z" fill="#262E45"/>
<path d="M267.115 155.661L231.842 217.812C258.034 216.168 283.071 200.103 295.109 176.94H313.585C289.523 234.104 212.904 253.473 164.909 213.349L172.494 198.779C183.461 207.562 196.371 214.65 210.494 216.633L245.276 155.664H267.111L267.115 155.661Z" fill="#D29968"/>
<path d="M267.115 155.661L231.842 217.812C258.034 216.168 283.071 200.103 295.109 176.94H313.585C289.523 234.104 212.904 253.473 164.909 213.349L172.494 198.779C183.461 207.562 196.371 214.65 210.494 216.633L245.276 155.664H267.111L267.115 155.661Z" fill="url(#paint0_linear_212_196)"/>
<path d="M179.209 271.011L197.491 239.054C203.801 240.675 210.18 242.163 216.721 242.456L201.048 271.011H179.212H179.209Z" fill="#D29968"/>
<path d="M179.209 271.011L197.491 239.054C203.801 240.675 210.18 242.163 216.721 242.456L201.048 271.011H179.212H179.209Z" fill="url(#paint1_linear_212_196)"/>
<path d="M179.209 271.011L197.491 239.054C203.801 240.675 210.18 242.163 216.721 242.456L201.048 271.011H179.212H179.209Z" fill="url(#paint2_linear_212_196)"/>
</g>
<defs>
<linearGradient id="paint0_linear_212_196" x1="239.247" y1="155.661" x2="239.247" y2="234.565" gradientUnits="userSpaceOnUse">
<stop stop-color="#B38E3D"/>
<stop offset="0.471154" stop-color="#FDFAB7"/>
<stop offset="1" stop-color="#B38E3D"/>
</linearGradient>
<linearGradient id="paint1_linear_212_196" x1="197.965" y1="239.054" x2="197.965" y2="271.011" gradientUnits="userSpaceOnUse">
<stop stop-color="#FDFAB7"/>
<stop offset="1" stop-color="#B38E3D"/>
</linearGradient>
<linearGradient id="paint2_linear_212_196" x1="197.965" y1="239.054" x2="197.965" y2="271.011" gradientUnits="userSpaceOnUse">
<stop stop-color="#B38E3D"/>
<stop offset="0.471154" stop-color="#FDFAB7"/>
<stop offset="1" stop-color="#B38E3D"/>
</linearGradient>
<clipPath id="clip0_212_196">
<rect width="457.653" height="469.47" fill="white"/>
</clipPath>
</defs>
</svg>
