<svg width="36" height="36" viewBox="0 0 36 36" fill="none" xmlns="http://www.w3.org/2000/svg">
<g clip-path="url(#clip0_118_127)">
<path d="M28.5469 24.3281C29.1294 24.3281 29.6016 23.8559 29.6016 23.2734C29.6016 22.6909 29.1294 22.2188 28.5469 22.2188C27.9644 22.2188 27.4922 22.6909 27.4922 23.2734C27.4922 23.8559 27.9644 24.3281 28.5469 24.3281Z" fill="white"/>
<path d="M24.3281 24.3281C24.9106 24.3281 25.3828 23.8559 25.3828 23.2734C25.3828 22.6909 24.9106 22.2188 24.3281 22.2188C23.7456 22.2188 23.2734 22.6909 23.2734 23.2734C23.2734 23.8559 23.7456 24.3281 24.3281 24.3281Z" fill="white"/>
<path d="M20.1094 24.3281C20.6919 24.3281 21.1641 23.8559 21.1641 23.2734C21.1641 22.6909 20.6919 22.2188 20.1094 22.2188C19.5269 22.2188 19.0547 22.6909 19.0547 23.2734C19.0547 23.8559 19.5269 24.3281 20.1094 24.3281Z" fill="white"/>
<path d="M0.0541121 29.268C-0.053044 29.5896 0.000815323 29.9432 0.199096 30.2182C0.397377 30.4932 0.715681 30.6562 1.05466 30.6562H27.4049C31.0132 30.6562 34.1643 28.046 34.7575 24.4871L35.9856 17.1187C36.0426 16.7769 35.928 16.4288 35.6791 16.1877C35.4302 15.9466 35.0787 15.8431 34.7389 15.911L29.5429 16.9477L27.2516 14.1654C27.0512 13.9222 26.7526 13.7812 26.4374 13.7812H24.9798L23.162 10.1455C22.9834 9.7882 22.6182 9.56249 22.2187 9.56249H20.7611L18.9432 5.92678C18.7647 5.56945 18.3995 5.34375 17.9999 5.34375H7.45308C6.87061 5.34375 6.3984 5.81597 6.3984 6.39844C6.3984 6.9809 6.87061 7.45312 7.45308 7.45312H8.91066L9.96534 9.56249H5.34371C4.76124 9.56249 4.28903 10.0347 4.28903 10.6172V12.7265C4.28903 14.4712 5.70842 15.8906 7.45308 15.8906H7.97107L5.49376 21.746L5.42823 21.7591C3.53071 22.1386 1.98306 23.481 1.38927 25.2625L0.0541121 29.268ZM11.2689 7.45312H17.3481L18.4028 9.56249H12.3236L11.2689 7.45312ZM9.56245 13.7812H7.45308C6.87153 13.7812 6.3984 13.3081 6.3984 12.7265V11.6719H21.5668L22.6215 13.7812H13.7812C13.1987 13.7812 12.7265 14.2535 12.7265 14.8359C12.7265 15.4184 13.1987 15.8906 13.7812 15.8906H25.9397L27.1959 17.416L7.99533 21.2469L10.5338 15.2468C10.8269 14.5542 10.3194 13.7812 9.56245 13.7812ZM3.39043 25.9295C3.7401 24.8805 4.70232 24.0554 5.84138 23.8275L33.6538 18.2784L32.6768 24.1403C32.2581 26.6524 29.9916 28.5468 27.4049 28.5468H2.518L3.39043 25.9295Z" fill="white"/>
</g>
<defs>
<clipPath id="clip0_118_127">
<rect width="36" height="36" fill="white"/>
</clipPath>
</defs>
</svg>
