<svg width="36" height="36" viewBox="0 0 36 36" fill="none" xmlns="http://www.w3.org/2000/svg">
<g clip-path="url(#clip0_119_133)">
<path d="M35.0274 27.129C33.8506 26.9736 33.8196 26.1395 32.2729 25.6534C32.3972 25.4402 32.51 25.2203 32.6098 24.9946L35.875 18.865C36.2489 18.163 35.7388 17.3144 34.9442 17.3144H34.7069C32.2987 13.8501 26.7747 11.1136 23.4949 9.72068L20.3846 7.00183C20.0475 6.70715 19.5611 6.65744 19.1714 6.87787L16.7955 8.22168C16.2885 8.50842 16.1099 9.15192 16.3966 9.65894C16.6834 10.166 17.3268 10.3446 17.8338 10.0578L19.5592 9.08189L20.3782 9.79774C20.0598 9.96818 19.7655 10.1897 19.5097 10.4604L15.6785 14.5166C15.3748 14.8378 14.9205 14.9671 14.4924 14.8539L3.18113 11.8676C1.60247 11.4518 0.0559509 12.6383 0.0559509 14.2709C0.0559509 15.2996 0.690943 16.2344 1.68031 16.6019L2.37887 16.8606C1.76722 18.4031 1.73213 20.0916 2.23339 21.6229H1.05572C0.257326 21.6229 -0.251033 22.4778 0.127951 23.1791L1.36644 25.4705C1.5863 25.878 1.84477 26.2567 2.13889 26.6053C1.82297 26.8906 1.42648 27.069 0.988506 27.12C0.409974 27.1874 -0.00437718 27.7111 0.0630525 28.2896C0.130482 28.8682 0.654099 29.2823 1.23263 29.2152C2.13516 29.1101 2.9569 28.7315 3.60969 28.1198C3.78631 27.9541 3.99022 27.8228 4.2169 27.7292C4.94921 27.4258 5.85012 27.5358 6.50783 28.1497C6.84301 28.4609 7.22677 28.7124 7.64682 28.8969C8.73884 29.3787 9.99181 29.3787 11.0821 28.8981C11.4813 28.7233 11.8856 28.4708 12.2577 28.1189C12.9188 27.4969 13.96 27.3956 14.7364 27.8366C14.9173 27.9391 15.0129 28.0175 15.1549 28.1497C15.9327 28.8716 16.9638 29.2585 18.0133 29.2584C19.1341 29.2583 20.1572 28.8235 20.9066 28.1172C21.6667 27.4016 22.9519 27.3611 23.7591 28.1063C24.1051 28.431 24.4779 28.6923 24.9426 28.8967C26.4802 29.5761 28.3244 29.2719 29.5351 28.1402C30.3961 27.3572 31.6268 27.3808 32.4563 28.1504C33.0877 28.7354 33.8813 29.1053 34.7512 29.2202C35.3282 29.2967 35.8585 28.8902 35.9348 28.3126C36.0112 27.7352 35.6049 27.2053 35.0274 27.129ZM2.31165 13.9743C2.3674 13.9313 2.48483 13.8655 2.64331 13.9072L13.9534 16.8933C15.1283 17.204 16.3765 16.8486 17.2114 15.9655L21.043 11.9089C21.4198 11.5101 22.013 11.3853 22.5192 11.5982C24.6615 12.5 29.3342 14.6587 31.9618 17.3144H21.7291C19.3311 17.3144 17.0057 18.0069 15.0173 19.2901C14.0523 18.9329 2.90234 14.8052 2.4136 14.6243C2.13713 14.5214 2.0742 14.1573 2.31165 13.9743ZM4.35718 17.593L13.0296 20.8037C11.6467 21.717 9.91559 21.6816 7.94403 21.6403C6.89869 21.6184 7.07335 21.6229 4.50715 21.6229C3.87294 20.3512 3.83384 18.8758 4.35718 17.593ZM25.7935 26.9666C25.5911 26.8776 25.4066 26.757 25.245 26.608C23.5889 25.053 21.0374 25.0939 19.4469 26.5939C18.6648 27.3271 17.3772 27.3311 16.5932 26.6067C16.3498 26.3763 16.0909 26.1782 15.777 26.0017V26.0017C15.5618 25.8808 15.3417 25.7789 15.0948 25.6941C13.507 25.1648 11.8925 25.5726 10.7998 26.5939C10.1672 27.1871 9.22765 27.2888 8.49654 26.9663C8.24258 26.8548 8.07987 26.7298 7.90065 26.5638C6.86853 25.6072 5.41679 25.2473 4.05624 25.5714C3.45654 24.9888 3.23604 24.4935 2.82458 23.7323C7.26769 23.7323 6.85566 23.7273 7.89987 23.7492C10.3278 23.7999 12.8381 23.8525 14.9091 22.0135C14.917 22.0064 14.9248 21.9993 14.9325 21.9922C15.1961 21.7594 15.4708 21.5418 15.7545 21.3389C15.7576 21.3367 15.7607 21.3344 15.7638 21.3322C17.4965 20.0955 19.5775 19.4237 21.7291 19.4237H33.1874C30.5612 24.3538 30.7187 24.0541 30.6927 24.1141C30.4284 24.723 30.0286 25.2716 29.5333 25.7129C29.0083 25.9035 28.5239 26.1983 28.1209 26.5754C27.4162 27.2129 26.5137 27.2848 25.7935 26.9666Z" fill="white"/>
</g>
<defs>
<clipPath id="clip0_119_133">
<rect width="36" height="36" fill="white"/>
</clipPath>
</defs>
</svg>
