<svg width="32" height="32" viewBox="0 0 32 32" fill="none" xmlns="http://www.w3.org/2000/svg">
<path fill-rule="evenodd" clip-rule="evenodd" d="M16.0018 12.0016C15.4764 12.0016 14.9563 12.1051 14.471 12.3061C13.9856 12.5071 13.5447 12.8018 13.1732 13.1732C12.8018 13.5447 12.5071 13.9856 12.3061 14.471C12.1051 14.9563 12.0016 15.4764 12.0016 16.0018C12.0016 16.5271 12.1051 17.0472 12.3061 17.5326C12.5071 18.0179 12.8018 18.4588 13.1732 18.8303C13.6939 19.351 13.6939 20.1952 13.1732 20.7159C12.6525 21.2366 11.8083 21.2366 11.2876 20.7159C10.6686 20.0968 10.1775 19.3619 9.84244 18.5531C9.5074 17.7442 9.33496 16.8772 9.33496 16.0018C9.33496 15.1263 9.5074 14.2594 9.84244 13.4504C10.1775 12.6416 10.6686 11.9067 11.2876 11.2876C11.9067 10.6685 12.6416 10.1775 13.4506 9.84244C14.2594 9.5074 15.1263 9.33496 16.0018 9.33496C16.8772 9.33496 17.7442 9.5074 18.5531 9.84244C19.3619 10.1775 20.0968 10.6685 20.7159 11.2876C21.2366 11.8083 21.2366 12.6525 20.7159 13.1732C20.1952 13.6939 19.351 13.6939 18.8303 13.1732C18.4588 12.8018 18.0179 12.5071 17.5326 12.3061C17.0472 12.1051 16.5271 12.0016 16.0018 12.0016Z" fill="white"/>
<path fill-rule="evenodd" clip-rule="evenodd" d="M14.2909 15.8523C14.8929 15.4282 15.7248 15.5725 16.1488 16.1745L16.3716 16.4907C17.5143 18.0302 19.1351 19.1474 20.9805 19.6673C22.8308 20.1886 24.8019 20.0799 26.5837 19.3585C27.082 19.1567 27.6528 19.2739 28.0312 19.6558C28.4096 20.0377 28.5217 20.6095 28.3153 21.1061C27.4747 23.129 26.1485 24.9137 24.4541 26.3022C22.7596 27.6907 20.7492 28.6403 18.6005 29.0671C16.4517 29.4939 14.2311 29.3846 12.1345 28.7491C10.0381 28.1135 8.13053 26.9711 6.58055 25.423C6.05953 24.9026 6.05903 24.0585 6.5794 23.5374C7.09979 23.0165 7.944 23.0159 8.46503 23.5363C9.70501 24.7747 11.2311 25.6886 12.9082 26.1971C14.5853 26.7055 16.362 26.793 18.0809 26.4515C19.8 26.1101 21.4083 25.3503 22.7639 24.2395C23.3565 23.7539 23.8928 23.2077 24.3649 22.6115C22.9933 22.7371 21.6011 22.6126 20.2575 22.2341C17.8379 21.5523 15.7136 20.0855 14.2188 18.0645L14.2008 18.0395L13.9688 17.7102C13.5447 17.1082 13.6889 16.2763 14.2909 15.8523Z" fill="white"/>
<path fill-rule="evenodd" clip-rule="evenodd" d="M2.66699 15.9998C2.66699 15.2634 3.26395 14.6665 4.00033 14.6665H5.33366C6.07003 14.6665 6.66699 15.2634 6.66699 15.9998C6.66699 16.7362 6.07003 17.3332 5.33366 17.3332H4.00033C3.26395 17.3332 2.66699 16.7362 2.66699 15.9998Z" fill="white"/>
<path fill-rule="evenodd" clip-rule="evenodd" d="M16.0003 2.6665C16.7367 2.6665 17.3337 3.26346 17.3337 3.99984V5.33317C17.3337 6.06954 16.7367 6.6665 16.0003 6.6665C15.2639 6.6665 14.667 6.06954 14.667 5.33317V3.99984C14.667 3.26346 15.2639 2.6665 16.0003 2.6665Z" fill="white"/>
<path fill-rule="evenodd" clip-rule="evenodd" d="M6.52431 6.52382C7.045 6.00313 7.88923 6.00313 8.40992 6.52382L9.34326 7.45715C9.86396 7.97786 9.86396 8.82207 9.34326 9.34278C8.82256 9.86347 7.97834 9.86347 7.45764 9.34278L6.52431 8.40945C6.00362 7.88874 6.00362 7.04453 6.52431 6.52382Z" fill="white"/>
<path fill-rule="evenodd" clip-rule="evenodd" d="M28.9431 3.05702C29.4638 3.57773 29.4638 4.42194 28.9431 4.94265L4.94314 28.9426C4.42243 29.4633 3.57822 29.4633 3.05751 28.9426C2.53682 28.422 2.53682 27.5777 3.05751 27.057L27.0575 3.05702C27.5782 2.53633 28.4225 2.53633 28.9431 3.05702Z" fill="white"/>
</svg>
