<svg width="36" height="36" viewBox="0 0 36 36" fill="none" xmlns="http://www.w3.org/2000/svg">
<g clip-path="url(#clip0_119_146)">
<path d="M35.5935 32.758C29.5633 28.06 22.473 30.812 15.4841 32.6343L12.335 20.8809C12.9515 20.8878 13.5753 21.0415 14.1551 21.3563C14.6602 21.6489 15.2956 21.4714 15.5872 20.9891C16.5775 19.3517 18.7048 18.5151 20.8274 19.6008C21.6392 20.016 22.5583 19.271 22.3265 18.3932C20.8003 12.6145 15.1295 9.12413 9.44714 10.1022L8.94679 8.23468C8.79611 7.67211 8.21794 7.33798 7.65515 7.48887C7.09251 7.63962 6.75867 8.21794 6.90942 8.78066L7.40976 10.6481C1.97524 12.6512 -1.16492 18.5291 0.403967 24.2796C0.646474 25.1681 1.84425 25.3431 2.32448 24.5467C3.35836 22.8324 5.57116 22.0898 7.55833 23.15C8.05769 23.415 8.67004 23.2402 8.95706 22.7658C9.30089 22.1972 9.76565 21.7475 10.2983 21.4297L13.4347 33.1356C9.40256 34.0421 5.35066 34.3985 1.4955 32.6313C0.966115 32.3886 0.340053 32.6211 0.0973338 33.1505C-0.145385 33.6801 0.0870681 34.3061 0.616592 34.5489C12.7024 40.089 25.3908 27.4829 34.2971 34.4221C34.7565 34.78 35.4192 34.6978 35.7773 34.2383C36.1352 33.7787 36.053 33.116 35.5935 32.758ZM19.5537 17.0266C18.0406 16.8655 16.5164 17.2884 15.3014 18.2086C14.6076 15.8516 13.3055 13.7162 11.4483 12.0475C14.8024 12.0774 17.9737 13.9746 19.5537 17.0266ZM2.11903 21.7025C1.9635 18.3442 3.69438 15.07 6.65847 13.328C5.89129 15.6784 5.8169 18.1777 6.40043 20.5917C4.88421 20.402 3.34992 20.8009 2.11903 21.7025ZM8.46389 20.1496C7.86356 17.7186 8.03526 15.1877 9.09705 12.8598C11.1796 14.3439 12.5952 16.4443 13.2923 18.8544C11.573 18.5617 9.80615 19.0355 8.46389 20.1496Z" fill="white"/>
<path d="M20.0595 9.55957H21.181C21.7635 9.55957 22.2356 9.08735 22.2356 8.50488C22.2356 7.92241 21.7634 7.4502 21.181 7.4502H20.0595C19.477 7.4502 19.0049 7.92241 19.0049 8.50488C19.0049 9.08735 19.477 9.55957 20.0595 9.55957Z" fill="white"/>
<path d="M27.496 12.0486C29.45 12.0486 31.0398 10.4587 31.0398 8.50455C31.0398 6.55036 29.45 4.96045 27.496 4.96045C25.5419 4.96045 23.9521 6.55036 23.9521 8.50455C23.9521 10.4587 25.5419 12.0486 27.496 12.0486ZM27.496 7.06982C28.287 7.06982 28.9305 7.71339 28.9305 8.50448C28.9305 9.2955 28.287 9.93914 27.496 9.93914C26.705 9.93914 26.0615 9.29557 26.0615 8.50448C26.0615 7.71339 26.705 7.06982 27.496 7.06982Z" fill="white"/>
<path d="M27.496 3.231C28.0785 3.231 28.5506 2.75878 28.5506 2.17631V1.05469C28.5506 0.472219 28.0784 0 27.496 0C26.9136 0 26.4414 0.472219 26.4414 1.05469V2.17624C26.4414 2.75878 26.9136 3.231 27.496 3.231Z" fill="white"/>
<path d="M22.2757 4.77576C22.6875 5.18765 23.3554 5.18772 23.7672 4.77576C24.1791 4.36387 24.1791 3.69612 23.7672 3.28415L22.9742 2.4911C22.5624 2.07914 21.8946 2.07914 21.4827 2.4911C21.0709 2.90299 21.0709 3.57075 21.4827 3.98271L22.2757 4.77576Z" fill="white"/>
<path d="M22.2757 12.2338L21.4827 13.0268C21.0709 13.4387 21.0709 14.1065 21.4827 14.5184C21.8945 14.9303 22.5624 14.9304 22.9742 14.5184L23.7672 13.7254C24.1791 13.3135 24.1791 12.6457 23.7672 12.2338C23.3554 11.8218 22.6876 11.8218 22.2757 12.2338Z" fill="white"/>
<path d="M26.4414 14.833V15.9545C26.4414 16.537 26.9136 17.0092 27.496 17.0092C28.0784 17.0092 28.5506 16.537 28.5506 15.9545V14.833C28.5506 14.2505 28.0784 13.7783 27.496 13.7783C26.9136 13.7783 26.4414 14.2505 26.4414 14.833Z" fill="white"/>
<path d="M31.2249 12.2338C30.813 12.6457 30.813 13.3134 31.2249 13.7254L32.0179 14.5184C32.4297 14.9303 33.0976 14.9304 33.5094 14.5184C33.9213 14.1065 33.9213 13.4388 33.5094 13.0268L32.7164 12.2338C32.3046 11.8218 31.6368 11.8218 31.2249 12.2338Z" fill="white"/>
<path d="M32.7695 8.50439C32.7695 9.08686 33.2417 9.55908 33.8241 9.55908H34.9456C35.5281 9.55908 36.0002 9.08686 36.0002 8.50439C36.0002 7.92193 35.528 7.44971 34.9456 7.44971H33.8241C33.2417 7.44971 32.7695 7.92193 32.7695 8.50439Z" fill="white"/>
<path d="M32.7164 4.77576L33.5094 3.98271C33.9213 3.57082 33.9213 2.90306 33.5094 2.4911C33.0976 2.07914 32.4297 2.07914 32.0179 2.4911L31.2249 3.28415C30.813 3.69605 30.813 4.3638 31.2249 4.77576C31.6367 5.18765 32.3046 5.18772 32.7164 4.77576Z" fill="white"/>
</g>
<defs>
<clipPath id="clip0_119_146">
<rect width="36" height="36" fill="white"/>
</clipPath>
</defs>
</svg>
