<svg width="36" height="36" viewBox="0 0 36 36" fill="none" xmlns="http://www.w3.org/2000/svg">
<g clip-path="url(#clip0_119_159)">
<path d="M32.3594 15.3399C33.1437 15.8628 33.517 16.8284 33.2883 17.7428C33.1471 18.3079 33.4906 18.8804 34.0557 19.0217C34.6209 19.1629 35.1933 18.8195 35.3345 18.2543C35.7787 16.4774 35.0533 14.6009 33.5293 13.5848C31.2973 12.0969 28.3007 12.3937 26.404 14.2904L25.4581 15.2363C24.1075 13.6081 22.4841 11.9688 20.7626 10.5408L21.7085 9.59488C23.6053 7.69816 23.902 4.70149 22.414 2.46955C21.398 0.945657 19.5216 0.220096 17.7446 0.664361C17.1795 0.805607 16.836 1.37818 16.9772 1.94323C17.1184 2.50829 17.6908 2.85166 18.2561 2.71056C19.1703 2.48185 20.1361 2.85525 20.659 3.63951C21.5912 5.03777 21.4053 6.91509 20.217 8.1034L19.0812 9.2392C18.0897 8.52658 17.1125 7.92244 16.1837 7.45314C12.8876 5.78794 11.2763 6.35756 10.5052 7.12868C10.2439 7.39001 10.0548 7.69556 9.93061 8.03802L0.316574 30.5455C0.1136 31.0208 0.00195312 31.5402 0.00195312 32.0823C0.00195312 34.9025 2.88789 36.7799 5.45365 35.6823L27.9542 26.0712C28.2995 25.947 28.6071 25.7568 28.8702 25.4937C29.6413 24.7226 30.211 23.1115 28.5458 19.8152C28.0765 18.8863 27.4723 17.9092 26.7597 16.9177L27.8955 15.7819C29.0838 14.5936 30.9611 14.4076 32.3594 15.3399ZM16.5035 28.6688L9.14051 15.2574L10.4806 12.12C12.6273 17.0626 18.9291 23.3686 23.8788 25.5185L16.5035 28.6688ZM9.70683 31.5721L5.56824 23.6203L8.0876 17.7223L14.5544 29.5014C13.7073 29.8633 14.6006 29.4817 9.70683 31.5721ZM4.62466 33.7429C3.28969 34.314 1.85839 33.1499 2.14714 31.7222C2.19917 31.4698 2.05694 31.8406 4.4965 26.1295L7.76159 32.403L4.62466 33.7429ZM26.6632 20.7663C27.6363 22.6925 27.6243 23.7568 27.3788 24.0023C27.3314 24.0496 27.2845 24.0638 27.2056 24.0973C26.781 24.2315 25.7626 24.1177 24.1248 23.2988C19.9142 21.1936 14.808 16.0899 12.7001 11.8741C11.8811 10.2361 11.7674 9.21769 11.9016 8.79311C11.9348 8.71591 11.9491 8.66775 11.9967 8.62016C12.0802 8.5367 12.258 8.48032 12.5323 8.48032C13.0651 8.48032 13.9611 8.69341 15.2326 9.3358C15.9808 9.71377 16.7668 10.1912 17.5693 10.7513L16.6923 11.6284C16.2804 12.0402 16.2804 12.7079 16.6923 13.1198C17.104 13.5316 17.7718 13.5317 18.1837 13.1198L19.265 12.0384C20.9366 13.4081 22.5886 15.0596 23.9606 16.7339L22.8792 17.8153C22.4674 18.2272 22.4674 18.8949 22.8792 19.3067C23.291 19.7186 23.9588 19.7186 24.3706 19.3067L25.2477 18.4296C25.8077 19.2321 26.2852 20.0182 26.6632 20.7663Z" fill="white"/>
<path d="M27.7446 9.74514L33.0879 4.40186C33.4998 3.99001 33.4998 3.32231 33.0879 2.91045C32.6761 2.4986 32.0084 2.4986 31.5965 2.91045L26.2532 8.25373C25.8414 8.66559 25.8414 9.33329 26.2532 9.74514C26.665 10.157 27.3329 10.1571 27.7446 9.74514Z" fill="white"/>
<path d="M5.62588 3.86685H6.25864V4.4996C6.25864 5.08202 6.73082 5.5542 7.31324 5.5542C7.89565 5.5542 8.36783 5.08202 8.36783 4.4996V3.86685H9.00059C9.583 3.86685 10.0552 3.39467 10.0552 2.81225C10.0552 2.22984 9.583 1.75766 9.00059 1.75766H8.36783V1.05459C8.36783 0.472177 7.89565 0 7.31324 0C6.73082 0 6.25864 0.472177 6.25864 1.05459V1.75766H5.62588C5.04347 1.75766 4.57129 2.22984 4.57129 2.81225C4.57129 3.39467 5.0434 3.86685 5.62588 3.86685Z" fill="white"/>
<path d="M34.9439 26.5057H34.2409V25.873C34.2409 25.2905 33.7687 24.8184 33.1863 24.8184C32.6039 24.8184 32.1317 25.2905 32.1317 25.873V26.5057H31.4989C30.9165 26.5057 30.4443 26.9779 30.4443 27.5603C30.4443 28.1427 30.9165 28.6149 31.4989 28.6149H32.1317V29.2477C32.1317 29.8301 32.6039 30.3023 33.1863 30.3023C33.7687 30.3023 34.2409 29.8301 34.2409 29.2477V28.6149H34.9439C35.5264 28.6149 35.9985 28.1427 35.9985 27.5603C35.9985 26.9779 35.5264 26.5057 34.9439 26.5057Z" fill="white"/>
<path d="M27.5628 2.10919C28.1452 2.10919 28.6174 1.63701 28.6174 1.05459C28.6174 0.472177 28.1452 0 27.5628 0C26.9737 0 26.5078 0.477872 26.5078 1.05459C26.5078 1.63701 26.9803 2.10919 27.5628 2.10919Z" fill="white"/>
<path d="M32.6953 9.56143C32.6953 10.1438 33.1678 10.616 33.7503 10.616C34.3327 10.616 34.8049 10.1438 34.8049 9.56143C34.8049 8.98386 34.3377 8.50684 33.7496 8.50684C33.1671 8.50684 32.6953 8.97901 32.6953 9.56143Z" fill="white"/>
</g>
<defs>
<clipPath id="clip0_119_159">
<rect width="36" height="36" fill="white"/>
</clipPath>
</defs>
</svg>
