<svg width="32" height="32" viewBox="0 0 32 32" fill="none" xmlns="http://www.w3.org/2000/svg">
<g clip-path="url(#clip0_119_168)">
<path d="M25.7154 7.89322L29.0037 8.98936C29.4968 9.15373 29.7633 9.68672 29.5989 10.1798C29.4346 10.673 28.9016 10.9395 28.4085 10.7751L26.4686 10.1285L27.6465 12.2487C27.8989 12.703 27.7352 13.276 27.2808 13.5285C26.8264 13.7809 26.2534 13.6172 26.001 13.1628L24.6094 10.658L24.4708 11.0047V14.1175C24.4708 16.3908 23.5753 18.4549 22.1178 19.9763V23.901L31.4957 28.8132C31.9562 29.0544 32.1339 29.6232 31.8927 30.0837C31.6516 30.5441 31.0828 30.7218 30.6223 30.4807L20.7399 25.3042C20.4298 25.1417 20.2355 24.8206 20.2355 24.4705V21.455C20.0485 21.5632 19.8574 21.6641 19.6628 21.7575C18.5543 22.2899 17.3121 22.5881 16.0002 22.5881C14.6883 22.5881 13.4461 22.2899 12.3376 21.7575C12.143 21.6641 11.9519 21.5632 11.7649 21.455V24.4705C11.7649 24.8206 11.5706 25.1417 11.2605 25.3042L1.3781 30.4807C0.917644 30.7218 0.348836 30.5441 0.107647 30.0837C-0.133543 29.6232 0.0441953 29.0544 0.504648 28.8132L9.88255 23.901V19.9763C8.42509 18.4549 7.52961 16.3908 7.52961 14.1175V11.0047L5.71458 6.46707C5.46729 5.84884 5.92258 5.17634 6.58843 5.17634H9.16202L15.5333 1.53563C15.8226 1.37029 16.1778 1.37029 16.4671 1.53563L22.8384 5.17634H25.412C26.0778 5.17634 26.5331 5.84884 26.2858 6.46707L25.7154 7.89322ZM9.41196 11.7646V14.1175C9.41196 17.7561 12.3616 20.7058 16.0002 20.7058C19.6388 20.7058 22.5884 17.7561 22.5884 14.1175V11.7646H9.41196ZM9.10799 9.88222H22.8924L24.0218 7.05869H7.97857L9.10799 9.88222ZM19.0444 5.17634L16.0002 3.43682L12.956 5.17634H19.0444Z" fill="white"/>
</g>
<defs>
<clipPath id="clip0_119_168">
<rect width="32" height="32" fill="white"/>
</clipPath>
</defs>
</svg>
