<svg width="32" height="32" viewBox="0 0 32 32" fill="none" xmlns="http://www.w3.org/2000/svg">
<g clip-path="url(#clip0_119_208)">
<path d="M13.5 32C11.4323 32 9.75 30.3177 9.75 28.25C9.75 26.1823 11.4323 24.5 13.5 24.5C15.5677 24.5 17.25 26.1823 17.25 28.25C17.25 30.3177 15.5677 32 13.5 32ZM13.5 27C12.8108 27 12.25 27.5608 12.25 28.25C12.25 28.9392 12.8108 29.5 13.5 29.5C14.1892 29.5 14.75 28.9392 14.75 28.25C14.75 27.5608 14.1892 27 13.5 27Z" fill="white"/>
<path d="M23.25 29.5H20.75C20.0596 29.5 19.5 28.9404 19.5 28.25C19.5 27.5596 20.0596 27 20.75 27H23.25C26.6962 27 29.5 24.1963 29.5 20.75V1.25C29.5 0.559625 30.0596 0 30.75 0C31.4404 0 32 0.559625 32 1.25V20.75C32 25.5747 28.0747 29.5 23.25 29.5Z" fill="white"/>
<path d="M19.5 22H18.5C16.4323 22 14.75 20.3177 14.75 18.25C14.75 17.5608 14.1892 17 13.5 17C12.8108 17 12.25 17.5608 12.25 18.25C12.25 20.3177 10.5677 22 8.5 22H7.5C3.3645 22 0 18.6355 0 14.5C0 10.3645 3.3645 7 7.5 7H19.5C23.6355 7 27 10.3645 27 14.5C27 18.6355 23.6355 22 19.5 22ZM13.5 14.5C15.5677 14.5 17.25 16.1823 17.25 18.25C17.25 18.9392 17.8107 19.5 18.5 19.5H19.5C22.257 19.5 24.5 17.257 24.5 14.5C24.5 11.743 22.257 9.5 19.5 9.5H7.5C4.743 9.5 2.5 11.743 2.5 14.5C2.5 17.257 4.743 19.5 7.5 19.5H8.5C9.18925 19.5 9.75 18.9392 9.75 18.25C9.75 16.1823 11.4323 14.5 13.5 14.5Z" fill="white"/>
</g>
<defs>
<clipPath id="clip0_119_208">
<rect width="32" height="32" fill="white"/>
</clipPath>
</defs>
</svg>
