<svg width="40" height="40" viewBox="0 0 40 40" fill="none" xmlns="http://www.w3.org/2000/svg">
<path d="M3.75 33.3333C3.75438 34.1055 4.06307 34.8449 4.60911 35.3909C5.15514 35.9369 5.89447 36.2456 6.66667 36.25H33.3333C34.1055 36.2456 34.8449 35.9369 35.3909 35.3909C35.9369 34.8449 36.2456 34.1055 36.25 33.3333V17.9167H3.75V33.3333ZM14.1167 25C14.351 24.7659 14.6687 24.6344 15 24.6344C15.3313 24.6344 15.649 24.7659 15.8833 25L18.3333 27.4L24.1167 21.6667C24.3516 21.5143 24.6309 21.4453 24.9097 21.4706C25.1885 21.4959 25.4508 21.6141 25.6545 21.8063C25.8581 21.9984 25.9914 22.2533 26.0329 22.5302C26.0744 22.8071 26.0217 23.0899 25.8833 23.3333L19.2167 30C18.9823 30.2341 18.6646 30.3656 18.3333 30.3656C18.0021 30.3656 17.6844 30.2341 17.45 30L14.1167 26.6667C13.9117 26.4375 13.7984 26.1408 13.7984 25.8333C13.7984 25.5259 13.9117 25.2292 14.1167 25ZM36.25 8.33333V15.4167H3.75V8.33333C3.75438 7.56113 4.06307 6.82181 4.60911 6.27577C5.15514 5.72974 5.89447 5.42104 6.66667 5.41667H8.75V5C8.75 4.66848 8.8817 4.35054 9.11612 4.11612C9.35054 3.8817 9.66848 3.75 10 3.75C10.3315 3.75 10.6495 3.8817 10.8839 4.11612C11.1183 4.35054 11.25 4.66848 11.25 5V5.41667H18.75V5C18.75 4.66848 18.8817 4.35054 19.1161 4.11612C19.3505 3.8817 19.6685 3.75 20 3.75C20.3315 3.75 20.6495 3.8817 20.8839 4.11612C21.1183 4.35054 21.25 4.66848 21.25 5V5.41667H28.75V5C28.75 4.66848 28.8817 4.35054 29.1161 4.11612C29.3505 3.8817 29.6685 3.75 30 3.75C30.3315 3.75 30.6495 3.8817 30.8839 4.11612C31.1183 4.35054 31.25 4.66848 31.25 5V5.41667H33.3333C34.1055 5.42104 34.8449 5.72974 35.3909 6.27577C35.9369 6.82181 36.2456 7.56113 36.25 8.33333Z" fill="black"/>
<path d="M3.75 33.3333C3.75438 34.1055 4.06307 34.8449 4.60911 35.3909C5.15514 35.9369 5.89447 36.2456 6.66667 36.25H33.3333C34.1055 36.2456 34.8449 35.9369 35.3909 35.3909C35.9369 34.8449 36.2456 34.1055 36.25 33.3333V17.9167H3.75V33.3333ZM14.1167 25C14.351 24.7659 14.6687 24.6344 15 24.6344C15.3313 24.6344 15.649 24.7659 15.8833 25L18.3333 27.4L24.1167 21.6667C24.3516 21.5143 24.6309 21.4453 24.9097 21.4706C25.1885 21.4959 25.4508 21.6141 25.6545 21.8063C25.8581 21.9984 25.9914 22.2533 26.0329 22.5302C26.0744 22.8071 26.0217 23.0899 25.8833 23.3333L19.2167 30C18.9823 30.2341 18.6646 30.3656 18.3333 30.3656C18.0021 30.3656 17.6844 30.2341 17.45 30L14.1167 26.6667C13.9117 26.4375 13.7984 26.1408 13.7984 25.8333C13.7984 25.5259 13.9117 25.2292 14.1167 25ZM36.25 8.33333V15.4167H3.75V8.33333C3.75438 7.56113 4.06307 6.82181 4.60911 6.27577C5.15514 5.72974 5.89447 5.42104 6.66667 5.41667H8.75V5C8.75 4.66848 8.8817 4.35054 9.11612 4.11612C9.35054 3.8817 9.66848 3.75 10 3.75C10.3315 3.75 10.6495 3.8817 10.8839 4.11612C11.1183 4.35054 11.25 4.66848 11.25 5V5.41667H18.75V5C18.75 4.66848 18.8817 4.35054 19.1161 4.11612C19.3505 3.8817 19.6685 3.75 20 3.75C20.3315 3.75 20.6495 3.8817 20.8839 4.11612C21.1183 4.35054 21.25 4.66848 21.25 5V5.41667H28.75V5C28.75 4.66848 28.8817 4.35054 29.1161 4.11612C29.3505 3.8817 29.6685 3.75 30 3.75C30.3315 3.75 30.6495 3.8817 30.8839 4.11612C31.1183 4.35054 31.25 4.66848 31.25 5V5.41667H33.3333C34.1055 5.42104 34.8449 5.72974 35.3909 6.27577C35.9369 6.82181 36.2456 7.56113 36.25 8.33333Z" fill="url(#paint0_linear_181_306)"/>
<defs>
<linearGradient id="paint0_linear_181_306" x1="-37.3953" y1="19.9997" x2="-32.3138" y2="-7.36991" gradientUnits="userSpaceOnUse">
<stop stop-color="#B38E3D"/>
<stop offset="0.471154" stop-color="#FDFAB7"/>
<stop offset="1" stop-color="#B38E3D"/>
</linearGradient>
</defs>
</svg>
