<svg width="40" height="40" viewBox="0 0 40 40" fill="none" xmlns="http://www.w3.org/2000/svg">
<path fill-rule="evenodd" clip-rule="evenodd" d="M20.4549 5.39151C17.6123 5.29684 14.7403 6.0724 12.2607 7.72751C9.47583 9.5884 7.5296 12.3364 6.63316 15.4084C6.3856 15.3782 6.08916 15.3915 5.73716 15.4911C4.42294 15.864 3.43449 16.9408 2.99005 17.8893C2.4136 19.1253 2.17049 20.76 2.42694 22.4475C2.6816 24.1297 3.39227 25.5164 4.28116 26.3773C5.17271 27.2386 6.17938 27.5186 7.17938 27.3084C8.66827 26.9906 9.40649 26.7528 9.19805 25.3657L8.18871 18.6417C8.39227 15.0026 10.2763 11.5768 13.4274 9.47018C17.6452 6.65284 23.1749 6.83329 27.198 9.92173C29.9967 12.0675 31.6216 15.2826 31.8092 18.6577L31.1034 23.3613C29.5292 27.6693 25.6265 30.6533 21.1105 31.0768H18.1034C17.3274 31.0768 16.7025 31.7017 16.7025 32.4768V33.2155C16.7025 33.9911 17.3274 34.616 18.1034 34.616H21.8949C22.6705 34.616 23.2927 33.9911 23.2927 33.2155V32.8293C26.698 31.9982 29.6705 29.9053 31.606 26.9866L32.8207 27.3088C33.8092 27.5653 34.8278 27.2386 35.7189 26.3777C36.6078 25.5164 37.318 24.1302 37.5732 22.448C37.8305 20.7604 37.5803 19.1284 37.0105 17.8897C36.4385 16.6511 35.5865 15.8644 34.6029 15.5822C34.1909 15.4635 33.7438 15.42 33.3603 15.4084C32.5496 12.6306 30.8807 10.1044 28.4754 8.25996C26.1105 6.44529 23.2976 5.48484 20.4549 5.39151Z" fill="black"/>
<path fill-rule="evenodd" clip-rule="evenodd" d="M20.4549 5.39151C17.6123 5.29684 14.7403 6.0724 12.2607 7.72751C9.47583 9.5884 7.5296 12.3364 6.63316 15.4084C6.3856 15.3782 6.08916 15.3915 5.73716 15.4911C4.42294 15.864 3.43449 16.9408 2.99005 17.8893C2.4136 19.1253 2.17049 20.76 2.42694 22.4475C2.6816 24.1297 3.39227 25.5164 4.28116 26.3773C5.17271 27.2386 6.17938 27.5186 7.17938 27.3084C8.66827 26.9906 9.40649 26.7528 9.19805 25.3657L8.18871 18.6417C8.39227 15.0026 10.2763 11.5768 13.4274 9.47018C17.6452 6.65284 23.1749 6.83329 27.198 9.92173C29.9967 12.0675 31.6216 15.2826 31.8092 18.6577L31.1034 23.3613C29.5292 27.6693 25.6265 30.6533 21.1105 31.0768H18.1034C17.3274 31.0768 16.7025 31.7017 16.7025 32.4768V33.2155C16.7025 33.9911 17.3274 34.616 18.1034 34.616H21.8949C22.6705 34.616 23.2927 33.9911 23.2927 33.2155V32.8293C26.698 31.9982 29.6705 29.9053 31.606 26.9866L32.8207 27.3088C33.8092 27.5653 34.8278 27.2386 35.7189 26.3777C36.6078 25.5164 37.318 24.1302 37.5732 22.448C37.8305 20.7604 37.5803 19.1284 37.0105 17.8897C36.4385 16.6511 35.5865 15.8644 34.6029 15.5822C34.1909 15.4635 33.7438 15.42 33.3603 15.4084C32.5496 12.6306 30.8807 10.1044 28.4754 8.25996C26.1105 6.44529 23.2976 5.48484 20.4549 5.39151Z" fill="url(#paint0_linear_181_283)"/>
<path fill-rule="evenodd" clip-rule="evenodd" d="M24.8924 17.4884C25.8946 17.4884 26.7071 18.3009 26.7093 19.3058C26.7071 20.308 25.8946 21.1227 24.8924 21.1227C23.8875 21.1227 23.0729 20.308 23.0729 19.3058C23.0729 18.3013 23.888 17.4884 24.8924 17.4884ZM19.9991 17.4884C21.0035 17.4884 21.816 18.3009 21.816 19.3058C21.816 20.308 21.0035 21.1227 19.9991 21.1227C18.9938 21.1227 18.1813 20.308 18.1813 19.3058C18.1813 18.3013 18.9938 17.4884 19.9991 17.4884ZM15.1075 17.4884C16.1098 17.4884 16.9244 18.3009 16.9244 19.3058C16.9244 20.308 16.1098 21.1227 15.1075 21.1227C14.1031 21.1227 13.2902 20.308 13.2902 19.3058C13.2902 18.3013 14.1031 17.4884 15.1075 17.4884ZM19.9991 9.68311C14.6702 9.68311 10.376 13.836 10.376 19.3058C10.376 21.9329 11.3693 24.2547 12.9875 25.9582L12.4133 28.5324C12.224 29.3796 12.8115 29.9493 13.5729 29.5253L16.0866 28.1231C17.2813 28.6418 18.6026 28.9284 19.9991 28.9284C25.3298 28.9284 29.6213 24.7782 29.6213 19.3058C29.6213 13.836 25.3298 9.68311 19.9991 9.68311Z" fill="black"/>
<path fill-rule="evenodd" clip-rule="evenodd" d="M24.8924 17.4884C25.8946 17.4884 26.7071 18.3009 26.7093 19.3058C26.7071 20.308 25.8946 21.1227 24.8924 21.1227C23.8875 21.1227 23.0729 20.308 23.0729 19.3058C23.0729 18.3013 23.888 17.4884 24.8924 17.4884ZM19.9991 17.4884C21.0035 17.4884 21.816 18.3009 21.816 19.3058C21.816 20.308 21.0035 21.1227 19.9991 21.1227C18.9938 21.1227 18.1813 20.308 18.1813 19.3058C18.1813 18.3013 18.9938 17.4884 19.9991 17.4884ZM15.1075 17.4884C16.1098 17.4884 16.9244 18.3009 16.9244 19.3058C16.9244 20.308 16.1098 21.1227 15.1075 21.1227C14.1031 21.1227 13.2902 20.308 13.2902 19.3058C13.2902 18.3013 14.1031 17.4884 15.1075 17.4884ZM19.9991 9.68311C14.6702 9.68311 10.376 13.836 10.376 19.3058C10.376 21.9329 11.3693 24.2547 12.9875 25.9582L12.4133 28.5324C12.224 29.3796 12.8115 29.9493 13.5729 29.5253L16.0866 28.1231C17.2813 28.6418 18.6026 28.9284 19.9991 28.9284C25.3298 28.9284 29.6213 24.7782 29.6213 19.3058C29.6213 13.836 25.3298 9.68311 19.9991 9.68311Z" fill="url(#paint1_linear_181_283)"/>
<defs>
<linearGradient id="paint0_linear_181_283" x1="-42.4271" y1="19.9996" x2="-38.6072" y2="-4.88013" gradientUnits="userSpaceOnUse">
<stop stop-color="#B38E3D"/>
<stop offset="0.471154" stop-color="#FDFAB7"/>
<stop offset="1" stop-color="#B38E3D"/>
</linearGradient>
<linearGradient id="paint1_linear_181_283" x1="-13.9888" y1="19.6758" x2="-10.7521" y2="2.88881" gradientUnits="userSpaceOnUse">
<stop stop-color="#B38E3D"/>
<stop offset="0.471154" stop-color="#FDFAB7"/>
<stop offset="1" stop-color="#B38E3D"/>
</linearGradient>
</defs>
</svg>
