<svg width="40" height="40" viewBox="0 0 40 40" fill="none" xmlns="http://www.w3.org/2000/svg">
<path d="M25.3554 20.1825C28.0466 18.3825 29.6535 15.3819 29.6535 12.1544C29.6535 6.83063 25.3229 2.5 19.9991 2.5C14.6754 2.5 10.3447 6.83063 10.3447 12.1544C10.3447 15.3819 11.9516 18.3825 14.6429 20.1825C14.8485 20.32 14.9535 20.565 14.9116 20.8087L12.0179 37.5006H27.9804L25.0866 20.8087C25.0447 20.565 25.1497 20.32 25.3554 20.1825Z" fill="#262E45"/>
<path d="M25.3554 20.1825C28.0466 18.3825 29.6535 15.3819 29.6535 12.1544C29.6535 6.83063 25.3229 2.5 19.9991 2.5C14.6754 2.5 10.3447 6.83063 10.3447 12.1544C10.3447 15.3819 11.9516 18.3825 14.6429 20.1825C14.8485 20.32 14.9535 20.565 14.9116 20.8087L12.0179 37.5006H27.9804L25.0866 20.8087C25.0447 20.565 25.1497 20.32 25.3554 20.1825Z" fill="url(#paint0_linear_181_277)"/>
<defs>
<linearGradient id="paint0_linear_181_277" x1="-14.1003" y1="20" x2="-4.88248" y2="-7.38929" gradientUnits="userSpaceOnUse">
<stop stop-color="#B38E3D"/>
<stop offset="0.471154" stop-color="#FDFAB7"/>
<stop offset="1" stop-color="#B38E3D"/>
</linearGradient>
</defs>
</svg>
