<svg width="40" height="40" viewBox="0 0 40 40" fill="none" xmlns="http://www.w3.org/2000/svg">
<g clip-path="url(#clip0_181_313)">
<path fill-rule="evenodd" clip-rule="evenodd" d="M32.4598 23.1404C33.0871 23.1404 33.5946 23.6478 33.5946 24.2776C33.5946 24.9044 33.0871 25.4118 32.4598 25.4118C31.8306 25.4118 31.3202 24.9044 31.3202 24.2776C31.3202 23.6478 31.8306 23.1404 32.4598 23.1404ZM28.5635 23.1404C29.1928 23.1404 29.7007 23.6478 29.7007 24.2776C29.7007 24.9044 29.1928 25.4148 28.5635 25.4148C27.9368 25.4148 27.4258 24.9044 27.4258 24.2776C27.4263 23.6478 27.9372 23.1404 28.5635 23.1404ZM24.7504 23.1404C25.3767 23.1404 25.8866 23.6478 25.8866 24.2776C25.8866 24.9044 25.3762 25.4148 24.7504 25.4148C24.1211 25.4148 23.6127 24.9044 23.6127 24.2776C23.6127 23.6478 24.1211 23.1404 24.7504 23.1404ZM27.0728 19.1069L22.375 21.2343H3.51825C2.57165 21.2343 2.27014 21.3274 1.86516 22.0982L0.702212 24.3207C0.243765 25.1999 0.346247 25.3806 0.622008 26.0871L1.61218 28.6294C1.86813 29.2844 2.26172 29.5809 3.18258 29.5809H32.2049C33.0351 29.5809 33.6282 29.3388 34.0253 28.7041L39.4405 20.6511C39.8554 20.0323 39.4068 19.1064 38.6979 19.1064H27.0728V19.1069Z" fill="black"/>
<path fill-rule="evenodd" clip-rule="evenodd" d="M32.4598 23.1404C33.0871 23.1404 33.5946 23.6478 33.5946 24.2776C33.5946 24.9044 33.0871 25.4118 32.4598 25.4118C31.8306 25.4118 31.3202 24.9044 31.3202 24.2776C31.3202 23.6478 31.8306 23.1404 32.4598 23.1404ZM28.5635 23.1404C29.1928 23.1404 29.7007 23.6478 29.7007 24.2776C29.7007 24.9044 29.1928 25.4148 28.5635 25.4148C27.9368 25.4148 27.4258 24.9044 27.4258 24.2776C27.4263 23.6478 27.9372 23.1404 28.5635 23.1404ZM24.7504 23.1404C25.3767 23.1404 25.8866 23.6478 25.8866 24.2776C25.8866 24.9044 25.3762 25.4148 24.7504 25.4148C24.1211 25.4148 23.6127 24.9044 23.6127 24.2776C23.6127 23.6478 24.1211 23.1404 24.7504 23.1404ZM27.0728 19.1069L22.375 21.2343H3.51825C2.57165 21.2343 2.27014 21.3274 1.86516 22.0982L0.702212 24.3207C0.243765 25.1999 0.346247 25.3806 0.622008 26.0871L1.61218 28.6294C1.86813 29.2844 2.26172 29.5809 3.18258 29.5809H32.2049C33.0351 29.5809 33.6282 29.3388 34.0253 28.7041L39.4405 20.6511C39.8554 20.0323 39.4068 19.1064 38.6979 19.1064H27.0728V19.1069Z" fill="url(#paint0_linear_181_313)"/>
<path fill-rule="evenodd" clip-rule="evenodd" d="M16.9785 14.6234C17.8221 14.6204 18.3459 14.5972 19.0004 15.2061L19.8827 16.1289C20.1842 16.4101 19.9906 16.6116 19.7203 16.6116L11.7004 16.6141C11.5148 16.6141 11.3935 16.5161 11.4915 16.2968L12.1232 14.9115C12.2262 14.6877 12.4069 14.6313 12.6262 14.6283L16.9785 14.6234ZM11.7881 10.4404C11.4529 10.4404 11.3133 10.6622 11.3524 10.9613L11.6083 12.9109H5.60991C4.8054 12.9109 4.39497 14.2313 5.38811 14.6897L7.80659 15.8121L6.04806 19.2262C5.80299 19.697 6.05053 20.0847 6.42977 20.0847H21.8155L24.6394 18.8054C25.2608 18.5246 25.3202 17.7221 24.4845 17.3582L22.1724 16.3507L20.1659 14.1743C19.1297 13.05 18.1499 12.9104 16.5874 12.9104H15.2848L13.4491 10.7731C13.3045 10.6083 13.0436 10.4404 12.7391 10.4404H11.7881Z" fill="black"/>
<path fill-rule="evenodd" clip-rule="evenodd" d="M16.9785 14.6234C17.8221 14.6204 18.3459 14.5972 19.0004 15.2061L19.8827 16.1289C20.1842 16.4101 19.9906 16.6116 19.7203 16.6116L11.7004 16.6141C11.5148 16.6141 11.3935 16.5161 11.4915 16.2968L12.1232 14.9115C12.2262 14.6877 12.4069 14.6313 12.6262 14.6283L16.9785 14.6234ZM11.7881 10.4404C11.4529 10.4404 11.3133 10.6622 11.3524 10.9613L11.6083 12.9109H5.60991C4.8054 12.9109 4.39497 14.2313 5.38811 14.6897L7.80659 15.8121L6.04806 19.2262C5.80299 19.697 6.05053 20.0847 6.42977 20.0847H21.8155L24.6394 18.8054C25.2608 18.5246 25.3202 17.7221 24.4845 17.3582L22.1724 16.3507L20.1659 14.1743C19.1297 13.05 18.1499 12.9104 16.5874 12.9104H15.2848L13.4491 10.7731C13.3045 10.6083 13.0436 10.4404 12.7391 10.4404H11.7881Z" fill="url(#paint1_linear_181_313)"/>
</g>
<defs>
<linearGradient id="paint0_linear_181_313" x1="-49.2573" y1="24.3436" x2="-48.8058" y2="15.2409" gradientUnits="userSpaceOnUse">
<stop stop-color="#B38E3D"/>
<stop offset="0.471154" stop-color="#FDFAB7"/>
<stop offset="1" stop-color="#B38E3D"/>
</linearGradient>
<linearGradient id="paint1_linear_181_313" x1="-20.9007" y1="15.2625" x2="-20.1655" y2="6.92552" gradientUnits="userSpaceOnUse">
<stop stop-color="#B38E3D"/>
<stop offset="0.471154" stop-color="#FDFAB7"/>
<stop offset="1" stop-color="#B38E3D"/>
</linearGradient>
<clipPath id="clip0_181_313">
<rect width="40" height="40" fill="white"/>
</clipPath>
</defs>
</svg>
