<svg width="944" height="740" viewBox="0 0 944 740" fill="none" xmlns="http://www.w3.org/2000/svg">
<g clip-path="url(#clip0_66_140)">
<path d="M102.226 497.905C96.4955 475.612 107.243 455.571 129.965 450.171C146.178 446.315 163.326 452.211 168.556 469.231C163.685 470.231 158.818 471.265 153.962 472.322C149.945 463.874 141.184 460.697 132.452 462.58C117.566 465.785 114.101 481.215 117.273 494.129C120.379 506.769 130.083 519.244 144.668 515.666C153.258 513.561 159.375 506.849 159.465 497.697C164.242 496.659 169.023 495.649 173.809 494.662C175.721 511.805 163.76 524.384 147.722 527.943C125.49 532.88 107.729 519.329 102.226 497.91V497.905Z" fill="white"/>
<path d="M201.771 467.612C194.28 469.188 188.578 476.07 190.646 484.047C192.732 494.832 194.818 505.613 196.9 516.398C192.189 517.304 187.483 518.239 182.782 519.201C177.614 493.836 172.445 468.471 167.282 443.106C172.233 442.096 177.194 441.109 182.159 440.151C184.175 450.573 186.19 460.99 188.205 471.411C188.39 471.378 188.479 471.359 188.663 471.322C189.315 462.382 197.438 456.35 205.75 454.939C218.461 452.777 228.642 460.777 230.261 473.573C232.229 485.505 234.197 497.437 236.161 509.37C231.431 510.148 226.707 510.951 221.991 511.777C220.099 500.959 218.201 490.14 216.308 479.322C215.242 471.992 209.512 465.988 201.775 467.617L201.771 467.612Z" fill="white"/>
<path d="M237.397 493.874C235.542 482.541 245.638 476.67 255.102 474.064C259.42 472.842 261.582 472.237 265.91 471.048C271.598 469.467 273.179 468.259 272.778 465.29C272.712 464.803 272.679 464.563 272.613 464.081C271.872 457.572 266.255 455.906 260.6 456.562C255.29 457.181 249.447 460.39 250.264 466.597C250.334 467.078 250.372 467.319 250.443 467.805C245.884 468.49 241.329 469.198 236.774 469.925C236.613 468.915 236.533 468.414 236.373 467.404C234.272 453.494 247.937 447.793 259.487 446.296C271.645 444.725 285.654 446.853 286.933 461.655C288.585 474.866 290.237 488.078 291.889 501.284C287.325 501.851 282.766 502.445 278.211 503.059C277.659 498.967 277.385 496.923 276.833 492.836C276.611 492.864 276.497 492.883 276.271 492.911C274.081 500.883 266.298 505.825 258.491 506.977C248.956 508.383 239.087 504.244 237.388 493.869L237.397 493.874ZM261.672 496.088C267.69 495.337 275.676 490.273 275.214 483.32C274.822 480.417 274.624 478.968 274.232 476.065C273.618 477.491 270.881 478.534 267.662 479.431C263.989 480.526 262.158 481.083 258.495 482.201C252.534 483.971 251.038 487.016 251.557 490.414C252.222 494.799 255.744 496.829 261.672 496.088Z" fill="white"/>
<path d="M291.913 443.167C296.85 442.572 301.792 442.001 306.734 441.458C307.234 446.018 307.739 450.573 308.24 455.132C308.376 455.118 308.447 455.109 308.584 455.094C309.457 446.509 316.278 439.684 324.868 438.905C326.251 438.777 327.894 438.721 329.56 439.009C330.013 443.781 330.239 446.164 330.688 450.936C328.941 450.879 327.544 450.908 326.053 451.049C314.89 452.093 308.73 461.249 310.109 472.115C311.086 481.012 312.067 489.904 313.049 498.802C308.296 499.321 303.543 499.868 298.795 500.444C296.501 481.352 294.207 462.259 291.913 443.167Z" fill="white"/>
<path d="M343.522 479.516C342.634 469.42 341.752 459.328 340.864 449.232C336.857 449.581 334.851 449.766 330.844 450.143C330.429 445.725 330.216 443.516 329.801 439.098C333.836 438.716 335.857 438.532 339.892 438.178L338.604 423.48C343.602 423.041 348.605 422.626 353.608 422.238C353.991 427.143 354.368 432.047 354.751 436.951C359.49 436.583 361.859 436.408 366.598 436.078C366.905 440.505 367.06 442.719 367.372 447.146C362.666 447.476 360.316 447.646 355.614 448.014C356.341 457.379 357.068 466.743 357.8 476.108C358.187 481.087 359.976 483.716 366.05 483.278C367.4 483.178 368.41 483.108 370.534 482.739C370.827 486.987 370.978 489.116 371.271 493.364C368.859 494.2 366.069 494.709 363.077 494.955C352.631 495.814 344.272 490.556 343.517 479.516H343.522Z" fill="white"/>
<path d="M368.944 464.719C367.905 447.306 379.007 434.208 396.532 433.179C413.84 432.165 425.381 444.319 425.834 461.311C425.886 463.298 425.815 464.421 425.626 465.644C411.395 466.116 397.179 466.762 382.962 467.588C384.099 476.717 390.184 482.678 399.529 482.126C405.429 481.777 410.819 479.284 412.481 473.219C417.645 473.012 420.226 472.922 425.39 472.757C423.153 485.42 411.834 492.349 399.727 493.001C382.499 493.926 369.954 481.725 368.939 464.719H368.944ZM411.848 457.478C411.334 449.487 404.867 443.474 396.839 444.05C388.9 444.621 382.485 450.615 382.551 458.946C392.312 458.38 402.073 457.889 411.844 457.478H411.848Z" fill="white"/>
<path d="M428.689 433.038C433.655 432.896 438.62 432.778 443.581 432.689C443.666 437.272 443.751 441.86 443.836 446.443C443.973 446.443 444.043 446.443 444.18 446.438C445.828 437.975 453.229 431.796 461.847 431.801C463.235 431.801 464.878 431.896 466.506 432.335C466.52 437.125 466.53 439.523 466.544 444.314C464.811 444.097 463.419 443.998 461.923 444.002C450.718 444.026 443.765 452.593 444.147 463.524C444.312 472.473 444.478 481.418 444.638 490.367C439.866 490.452 435.09 490.565 430.318 490.702C429.775 471.482 429.232 452.258 428.685 433.038H428.689Z" fill="white"/>
<path d="M537.863 459.125C526.426 458.63 514.99 458.247 503.548 457.974C503.312 468.806 503.072 479.638 502.836 490.471C497.95 490.362 493.065 490.277 488.175 490.225C488.482 464.341 488.784 438.456 489.091 412.572C494.24 412.643 499.39 412.728 504.539 412.832C504.299 423.848 504.058 434.864 503.813 445.886C515.348 446.159 526.879 446.546 538.405 447.047C538.901 436.04 539.401 425.028 539.897 414.021C545.042 414.262 550.187 414.521 555.331 414.795C553.901 440.642 552.471 466.488 551.036 492.335C546.156 492.061 541.271 491.816 536.39 491.599C536.881 480.776 537.367 469.953 537.858 459.125H537.863Z" fill="white"/>
<path d="M556.408 463.638C557.588 446.23 570.266 434.652 587.782 435.856C605.081 437.045 615.007 450.558 613.294 467.48C613.095 469.457 612.878 470.562 612.538 471.751C598.355 470.411 584.162 469.245 569.95 468.258C569.921 477.458 575.198 484.146 584.544 484.783C590.439 485.184 596.108 483.4 598.529 477.59C603.684 478.038 606.256 478.279 611.406 478.775C607.578 491.056 595.452 496.489 583.364 495.597C566.155 494.327 555.261 480.639 556.413 463.633L556.408 463.638ZM599.893 461.901C600.398 453.905 594.739 447.122 586.706 446.674C578.757 446.23 571.63 451.366 570.639 459.635C580.395 460.31 590.147 461.065 599.893 461.901Z" fill="white"/>
<path d="M612.689 481.913C613.784 470.491 625.013 467.376 634.831 467.272C639.31 467.192 641.552 467.159 646.041 467.112C651.941 467.031 653.777 466.267 654.145 463.293C654.206 462.807 654.235 462.566 654.296 462.08C655.24 455.599 650.242 452.555 644.606 451.748C639.315 450.993 632.853 452.607 632.065 458.818C632.013 459.305 631.985 459.545 631.933 460.032C627.359 459.531 622.781 459.055 618.198 458.601C618.297 457.587 618.349 457.077 618.452 456.062C619.968 442.086 634.6 440.042 646.154 441.543C658.308 443.124 671.307 448.755 668.768 463.392C666.998 476.585 665.223 489.782 663.453 502.974C658.898 502.361 654.339 501.771 649.774 501.204C650.284 497.107 650.539 495.063 651.049 490.966C650.827 490.938 650.714 490.924 650.487 490.896C646.343 498.042 637.559 500.841 629.724 499.963C620.147 498.891 611.693 492.364 612.694 481.909L612.689 481.913ZM635.562 490.24C641.571 491.047 650.577 488.186 651.903 481.347C652.267 478.44 652.446 476.986 652.805 474.083C651.846 475.305 648.934 475.617 645.597 475.664C641.769 475.787 639.858 475.858 636.034 476.004C629.823 476.193 627.605 478.76 627.236 482.178C626.764 486.591 629.644 489.447 635.558 490.24H635.562Z" fill="white"/>
<path d="M670.202 445.678C675.215 446.343 680.223 447.042 685.221 447.764C688.487 463.085 691.621 478.435 694.614 493.813C694.836 493.846 694.949 493.864 695.176 493.898C702.695 480.153 710.332 466.474 718.096 452.867C723.127 453.716 728.15 454.575 733.176 455.458C722.471 473.054 711.998 490.782 701.746 508.643C695.799 507.68 689.847 506.76 683.89 505.872C679.581 485.751 675.017 465.686 670.207 445.678H670.202Z" fill="white"/>
<path d="M723.878 482.999C727.05 465.795 741.045 455.802 758.324 459.003C775.387 462.165 783.817 476.693 780.169 493.359C779.744 495.304 779.404 496.371 778.927 497.518C764.933 494.554 750.914 491.764 736.848 489.149C735.768 498.311 740.294 505.542 749.517 507.241C755.341 508.317 761.199 507.208 764.286 501.704C769.374 502.743 771.918 503.276 776.997 504.362C771.762 516.148 759.032 520.117 747.105 517.847C730.137 514.614 720.782 499.802 723.883 482.994L723.878 482.999ZM767.434 486.275C768.85 478.364 763.955 470.996 756.016 469.632C748.162 468.282 740.455 472.535 738.519 480.663C748.172 482.456 757.81 484.325 767.434 486.275Z" fill="white"/>
<path d="M815.706 483.419C808.21 481.843 800.196 485.826 798.874 493.973C796.439 504.683 794.003 515.392 791.568 526.102C786.885 525.035 782.194 523.992 777.502 522.977C781.58 504.187 785.658 485.392 789.736 466.602C794.617 467.659 799.497 468.74 804.363 469.854C803.311 474.484 802.782 476.797 801.73 481.427C801.909 481.47 802.003 481.489 802.183 481.531C806.393 473.602 816.286 471.374 824.471 473.432C836.983 476.58 843.162 487.988 839.476 500.383C836.469 512.098 833.462 523.808 830.456 535.523C825.797 534.324 821.129 533.149 816.456 532.002C819.08 521.34 821.705 510.672 824.329 500.005C826.311 492.845 823.451 485.057 815.706 483.424V483.419Z" fill="white"/>
<path d="M564.441 358.216C570.195 358.216 575.741 356.083 580.012 352.231L617.272 318.635C533.813 308.619 405.113 338.506 371.488 347.101C366.135 348.47 361.552 351.911 358.758 356.678L347.146 376.459C352.466 376.459 357.507 374.066 360.868 369.941L367.249 362.11C370.043 358.679 373.984 356.366 378.346 355.611C506.206 333.503 580.65 330.496 580.65 330.496L564.441 358.216Z" fill="white"/>
<path d="M393.214 313.631L382.117 336.991C429.331 322.524 498.059 315.482 498.059 315.482L480.322 301.685C474.36 297.05 466.685 295.233 459.28 296.705L399.732 308.553C396.881 309.119 394.465 311.002 393.219 313.627L393.214 313.631Z" fill="white"/>
<path d="M489.218 187.536L470.286 269.178C443.888 263.056 417.611 265.36 394.37 275.069L386.752 264.694C397.967 259.37 409.955 255.599 422.374 253.574C434.797 251.53 447.668 251.256 460.639 252.96L489.214 187.541L489.218 187.536Z" fill="white"/>
<path d="M622.459 354.525L620.869 359.099L619.594 362.219C610.768 383.624 591.43 398.851 568.543 402.353C560.33 403.623 552.018 404.123 543.678 404.038C524.028 403.873 504.667 400.375 485.197 398.228C464.287 395.943 443.236 395.264 422.204 395.882C380.559 397.142 345.627 397.34 305.053 406.592C298.842 408.022 261.946 419.978 260.808 420.346C261.88 419.652 287.958 403.17 302.368 397.992C320.139 391.61 338.457 387.443 357.035 384.087C382.424 379.489 408.228 377.186 434.004 376.591C443.972 376.374 453.936 376.412 463.896 376.691C476.337 377.045 488.77 377.8 501.174 378.989C532.841 382.019 566.168 381.769 596.112 369.677C602.376 367.137 617.47 361.53 622.459 354.53V354.525Z" fill="#23A5DD"/>
<path d="M554.666 303.035C549.276 304.701 543.938 304.767 538.434 303.705C536.815 303.394 530.452 302.402 530.405 299.924C530.405 299.924 537.466 297.815 538.51 295.506C538.51 295.506 516.198 279.057 516.321 271.642C516.321 271.642 537.334 290.102 549.502 290.758C561.666 291.414 581.948 296.304 583.84 298.253C580.126 297.852 576.312 297.876 572.593 298.154C566.277 298.626 560.646 301.185 554.671 303.03L554.666 303.035Z" fill="white"/>
<path d="M362.751 251.469L384.708 279.713C357.129 296.493 336.059 323.921 328.205 357.782L246.587 338.855L317.887 341.98C326.931 315.165 344.045 292.811 365.786 277.103L334.011 213.709L362.095 250.61L362.751 251.469Z" fill="white"/>
</g>
<defs>
<clipPath id="clip0_66_140">
<rect width="944" height="944" fill="white" transform="translate(0 -105.5)"/>
</clipPath>
</defs>
</svg>
