<svg width="960" height="525" viewBox="0 0 960 525" fill="none" xmlns="http://www.w3.org/2000/svg">
<rect width="960" height="525" fill="white"/>
<path d="M225.052 356.913C221.084 341.477 228.526 327.6 244.26 323.861C255.487 321.19 267.361 325.272 270.982 337.058C267.609 337.751 264.239 338.467 260.876 339.199C258.095 333.349 252.029 331.149 245.982 332.453C235.674 334.672 233.275 345.356 235.471 354.299C237.622 363.051 244.342 371.69 254.441 369.212C260.389 367.754 264.625 363.107 264.687 356.77C267.995 356.05 271.305 355.351 274.62 354.668C275.943 366.539 267.661 375.249 256.555 377.713C241.162 381.132 228.863 371.748 225.052 356.917V356.913Z" fill="#02123D"/>
<path d="M293.981 335.937C288.795 337.029 284.846 341.794 286.278 347.317C287.723 354.786 289.167 362.251 290.608 369.719C287.347 370.346 284.088 370.993 280.833 371.66C277.254 354.096 273.675 336.532 270.1 318.968C273.528 318.268 276.963 317.585 280.401 316.922C281.797 324.138 283.193 331.352 284.588 338.568C284.716 338.545 284.778 338.532 284.905 338.506C285.356 332.316 290.981 328.139 296.737 327.162C305.538 325.665 312.588 331.205 313.709 340.065C315.072 348.327 316.435 356.59 317.795 364.852C314.52 365.391 311.248 365.947 307.983 366.519C306.672 359.028 305.359 351.537 304.048 344.046C303.309 338.97 299.341 334.813 293.985 335.94L293.981 335.937Z" fill="#02123D"/>
<path d="M318.651 354.122C317.366 346.275 324.357 342.209 330.91 340.405C333.901 339.558 335.398 339.14 338.395 338.316C342.333 337.222 343.428 336.385 343.15 334.329C343.105 333.992 343.082 333.826 343.036 333.492C342.523 328.985 338.634 327.832 334.718 328.286C331.041 328.714 326.995 330.937 327.56 335.234C327.609 335.568 327.636 335.735 327.685 336.071C324.527 336.545 321.373 337.035 318.22 337.539C318.108 336.839 318.053 336.493 317.942 335.793C316.487 326.162 325.949 322.213 333.947 321.177C342.366 320.089 352.066 321.563 352.952 331.812C354.096 340.961 355.24 350.109 356.384 359.254C353.223 359.646 350.066 360.058 346.912 360.482C346.53 357.649 346.34 356.234 345.958 353.403C345.804 353.423 345.726 353.436 345.569 353.455C344.053 358.976 338.663 362.398 333.257 363.195C326.655 364.169 319.821 361.303 318.644 354.119L318.651 354.122ZM335.46 355.655C339.627 355.135 345.157 351.628 344.837 346.814C344.566 344.804 344.428 343.801 344.157 341.791C343.732 342.778 341.837 343.5 339.608 344.121C337.065 344.879 335.797 345.265 333.26 346.04C329.133 347.265 328.096 349.373 328.456 351.727C328.917 354.763 331.355 356.168 335.46 355.655Z" fill="#02123D"/>
<path d="M356.4 319.01C359.819 318.598 363.241 318.203 366.663 317.827C367.009 320.984 367.359 324.138 367.706 327.296C367.8 327.286 367.849 327.279 367.944 327.269C368.549 321.324 373.272 316.598 379.22 316.059C380.178 315.971 381.315 315.931 382.469 316.131C382.782 319.435 382.939 321.086 383.25 324.39C382.041 324.351 381.073 324.37 380.04 324.468C372.311 325.191 368.046 331.531 369 339.055C369.68 345.216 370.356 351.373 371.036 357.534C367.745 357.894 364.454 358.273 361.166 358.672C359.577 345.451 357.989 332.231 356.4 319.01Z" fill="#02123D"/>
<path d="M392.137 344.18C391.522 337.189 390.911 330.201 390.297 323.21C387.522 323.452 386.133 323.579 383.358 323.841C383.07 320.782 382.923 319.252 382.636 316.193C385.43 315.928 386.829 315.801 389.627 315.556C389.329 312.163 389.032 308.771 388.734 305.378C392.196 305.074 395.66 304.786 399.125 304.518L399.915 314.706C403.197 314.451 404.838 314.33 408.119 314.101C408.331 317.167 408.439 318.7 408.655 321.765C405.397 321.994 403.769 322.112 400.514 322.367C401.017 328.851 401.52 335.336 402.027 341.82C402.295 345.268 403.534 347.089 407.74 346.785C408.675 346.716 409.374 346.667 410.845 346.412C411.047 349.354 411.152 350.828 411.355 353.769C409.685 354.348 407.753 354.701 405.681 354.871C398.448 355.465 392.66 351.824 392.137 344.18Z" fill="#02123D"/>
<path d="M409.739 333.933C409.02 321.877 416.707 312.807 428.843 312.094C440.828 311.392 448.819 319.808 449.133 331.574C449.169 332.95 449.12 333.728 448.989 334.574C439.135 334.901 429.291 335.349 419.446 335.921C420.234 342.242 424.447 346.37 430.918 345.987C435.004 345.745 438.736 344.02 439.887 339.82C443.462 339.676 445.25 339.614 448.825 339.499C447.276 348.268 439.439 353.066 431.055 353.517C419.126 354.158 410.439 345.709 409.736 333.933H409.739ZM439.449 328.92C439.092 323.387 434.615 319.223 429.055 319.621C423.558 320.017 419.116 324.168 419.162 329.936C425.921 329.544 432.68 329.204 439.445 328.92H439.449Z" fill="#02123D"/>
<path d="M451.11 311.996C454.549 311.898 457.987 311.817 461.422 311.755C461.481 314.928 461.54 318.105 461.598 321.279C461.693 321.279 461.742 321.279 461.837 321.275C462.978 315.415 468.102 311.137 474.07 311.14C475.031 311.14 476.169 311.206 477.296 311.509C477.306 314.827 477.313 316.487 477.322 319.805C476.123 319.654 475.159 319.586 474.123 319.589C466.364 319.605 461.549 325.537 461.814 333.107C461.928 339.303 462.043 345.497 462.154 351.694C458.85 351.753 455.542 351.831 452.238 351.926C451.862 338.617 451.486 325.305 451.107 311.996H451.11Z" fill="#02123D"/>
<path d="M526.707 330.061C518.788 329.717 510.869 329.453 502.946 329.263C502.783 336.764 502.616 344.265 502.453 351.766C499.07 351.691 495.687 351.632 492.301 351.596C492.514 333.672 492.723 315.749 492.935 297.825C496.501 297.874 500.067 297.933 503.633 298.005C503.466 305.633 503.299 313.261 503.129 320.893C511.117 321.082 519.102 321.351 527.083 321.697C527.426 314.075 527.773 306.45 528.116 298.828C531.678 298.995 535.241 299.175 538.803 299.364C537.813 317.262 536.823 335.159 535.829 353.057C532.45 352.867 529.067 352.697 525.687 352.547C526.027 345.053 526.364 337.558 526.704 330.061H526.707Z" fill="#02123D"/>
<path d="M539.546 333.185C540.363 321.132 549.141 313.114 561.27 313.948C573.249 314.771 580.122 324.129 578.936 335.846C578.798 337.215 578.648 337.98 578.413 338.803C568.591 337.875 558.763 337.068 548.922 336.385C548.903 342.755 552.56 347.386 559.028 347.827C563.11 348.105 567.036 346.87 568.712 342.846C572.281 343.157 574.063 343.324 577.628 343.667C574.978 352.171 566.581 355.933 558.211 355.315C546.295 354.436 538.751 344.958 539.549 333.182L539.546 333.185ZM569.66 331.982C570.01 326.446 566.091 321.749 560.528 321.439C555.024 321.132 550.089 324.687 549.403 330.414C556.159 330.881 562.911 331.404 569.66 331.982Z" fill="#02123D"/>
<path d="M578.52 345.84C579.279 337.931 587.054 335.774 593.852 335.702C596.954 335.646 598.506 335.623 601.615 335.591C605.7 335.535 606.971 335.006 607.226 332.946C607.269 332.61 607.288 332.443 607.331 332.107C607.985 327.619 604.523 325.511 600.621 324.952C596.957 324.429 592.483 325.547 591.937 329.848C591.901 330.185 591.881 330.351 591.845 330.688C588.678 330.342 585.508 330.012 582.335 329.698C582.403 328.995 582.439 328.642 582.511 327.939C583.56 318.262 593.692 316.847 601.693 317.886C610.109 318.981 619.11 322.88 617.352 333.015C616.126 342.15 614.897 351.288 613.671 360.423C610.518 359.999 607.36 359.59 604.2 359.198C604.553 356.361 604.729 354.946 605.082 352.109C604.925 352.089 604.85 352.079 604.693 352.06C601.824 357.008 595.741 358.946 590.316 358.338C583.684 357.596 577.831 353.076 578.524 345.837L578.52 345.84ZM594.359 351.605C598.519 352.164 604.755 350.184 605.674 345.448C605.925 343.435 606.05 342.428 606.298 340.418C605.635 341.264 603.618 341.48 601.307 341.513C598.657 341.598 597.333 341.647 594.686 341.748C590.385 341.879 588.848 343.657 588.593 346.023C588.267 349.079 590.26 351.056 594.356 351.605H594.359Z" fill="#02123D"/>
<path d="M618.345 320.749C621.816 321.21 625.281 321.694 628.745 322.194C631.007 332.803 633.177 343.431 635.249 354.08C635.403 354.103 635.481 354.116 635.638 354.139C640.844 344.621 646.133 335.149 651.509 325.727C654.993 326.315 658.471 326.91 661.951 327.521C654.539 339.706 647.286 351.981 640.188 364.349C636.069 363.682 631.948 363.045 627.823 362.43C624.839 348.497 621.679 334.604 618.348 320.749H618.345Z" fill="#02123D"/>
<path d="M655.513 346.592C657.71 334.679 667.4 327.76 679.366 329.976C691.181 332.165 697.018 342.225 694.492 353.766C694.197 355.112 693.962 355.851 693.632 356.645C683.941 354.593 674.234 352.661 664.495 350.85C663.746 357.194 666.881 362.201 673.267 363.378C677.297 364.123 681.356 363.355 683.494 359.544C687.017 360.263 688.779 360.633 692.295 361.384C688.671 369.545 679.856 372.294 671.597 370.722C659.847 368.483 653.369 358.227 655.517 346.589L655.513 346.592ZM685.674 348.86C686.654 343.382 683.265 338.28 677.767 337.336C672.329 336.401 666.992 339.346 665.652 344.974C672.335 346.216 679.009 347.51 685.674 348.86Z" fill="#02123D"/>
<path d="M719.098 346.883C713.908 345.791 708.358 348.55 707.443 354.191C705.757 361.607 704.07 369.023 702.384 376.438C699.142 375.7 695.893 374.978 692.644 374.275C695.468 361.264 698.292 348.249 701.116 335.238C704.495 335.97 707.875 336.718 711.244 337.49C710.515 340.696 710.149 342.297 709.42 345.504C709.545 345.533 709.61 345.546 709.734 345.575C712.65 340.085 719.5 338.542 725.167 339.967C733.832 342.147 738.11 350.047 735.557 358.629C733.476 366.741 731.394 374.85 729.312 382.962C726.086 382.132 722.853 381.318 719.618 380.524C721.435 373.141 723.252 365.754 725.069 358.368C726.442 353.41 724.461 348.017 719.098 346.886V346.883Z" fill="#02123D"/>
<path d="M545.111 260.187C549.095 260.187 552.936 258.709 555.894 256.042L581.694 232.778C523.903 225.843 434.785 246.538 411.501 252.49C407.795 253.437 404.621 255.82 402.687 259.121L394.646 272.819C398.33 272.819 401.821 271.162 404.148 268.305L408.566 262.883C410.501 260.507 413.23 258.905 416.25 258.382C504.786 243.074 556.335 240.992 556.335 240.992L545.111 260.187Z" fill="#02123D"/>
<path d="M426.546 229.314L418.862 245.489C451.555 235.471 499.145 230.595 499.145 230.595L486.863 221.042C482.735 217.832 477.421 216.574 472.293 217.594L431.059 225.797C429.085 226.189 427.412 227.493 426.549 229.311L426.546 229.314Z" fill="#02123D"/>
<path d="M493.024 142L479.914 198.533C461.635 194.294 443.44 195.888 427.346 202.611L422.071 195.428C429.837 191.741 438.138 189.13 446.737 187.727C455.34 186.312 464.253 186.123 473.234 187.303L493.021 142.003L493.024 142Z" fill="#02123D"/>
<path d="M585.286 257.631L584.185 260.798L583.302 262.958C577.191 277.78 563.8 288.324 547.952 290.749C542.265 291.628 536.509 291.975 530.734 291.916C517.128 291.801 503.721 289.38 490.239 287.892C475.761 286.311 461.184 285.84 446.62 286.268C417.784 287.141 393.594 287.278 365.5 293.684C361.199 294.674 335.65 302.953 334.862 303.208C335.604 302.727 353.662 291.314 363.64 287.729C375.945 283.31 388.63 280.424 401.494 278.101C419.074 274.917 436.943 273.322 454.791 272.91C461.694 272.76 468.593 272.786 475.489 272.979C484.105 273.224 492.714 273.747 501.303 274.571C523.23 276.669 546.308 276.496 567.042 268.122C571.379 266.364 581.832 262.481 585.286 257.634V257.631Z" fill="#23A5DD"/>
<path d="M538.343 221.976C534.61 223.13 530.914 223.176 527.103 222.441C525.982 222.225 521.576 221.538 521.544 219.823C521.544 219.823 526.433 218.362 527.155 216.763C527.155 216.763 511.706 205.373 511.791 200.239C511.791 200.239 526.342 213.021 534.767 213.475C543.19 213.93 557.234 217.316 558.545 218.666C555.972 218.388 553.332 218.404 550.756 218.597C546.383 218.924 542.484 220.695 538.346 221.973L538.343 221.976Z" fill="#02123D"/>
<path d="M405.452 186.27L420.656 205.828C401.559 217.447 386.969 236.439 381.531 259.886L325.015 246.78L374.386 248.944C380.648 230.376 392.499 214.897 407.553 204.02L385.551 160.123L404.998 185.675L405.452 186.27Z" fill="#02123D"/>
</svg>
