<svg width="24" height="24" viewBox="0 0 24 24" fill="none" xmlns="http://www.w3.org/2000/svg">
<path d="M12 9.75C10.9252 9.75 1.5 9.66577 1.5 6.75C1.5 5.68177 2.24559 4.71164 10.5008 4.53038C10.5004 4.52016 10.5 4.51027 10.5 4.5C10.5 4.08586 10.8359 3.75 11.25 3.75C19.556 3.75 22.5 4.53516 22.5 6.75C22.5 9.02048 16.786 9.57384 13.7486 9.70786C13.6706 9.735 12.1955 9.75 12 9.75ZM3.12853 6.828C3.86789 7.40513 7.03275 8.25 12 8.25C12.2549 8.25 12.5047 8.24784 12.75 8.24339V6.00178C5.68903 6.03661 3.68887 6.56288 3.12853 6.828ZM14.25 5.29613V8.18916C18.249 7.96725 20.6572 7.18791 20.9971 6.70312C20.9348 6.21572 19.8633 5.48588 14.25 5.29613Z" fill="white"/>
<path d="M12 18.75C10.9252 18.75 1.5 18.6658 1.5 15.75V6.75C1.5 6.33586 1.83586 6 2.25 6C2.66414 6 3 6.33586 3 6.75V15.6987C3.38597 16.2682 6.64598 17.25 12 17.25C17.354 17.25 20.614 16.2682 21 15.6987V6.75C21 6.33586 21.3359 6 21.75 6C22.1641 6 22.5 6.33586 22.5 6.75V15.75C22.5 18.6658 13.0748 18.75 12 18.75Z" fill="white"/>
<path d="M13.5 16.5H11.25C11.0512 16.5 10.8604 16.4209 10.7198 16.2803L9.96975 15.5303C9.82913 15.3896 9.75 15.1988 9.75 15V12C9.75 11.8012 9.82913 11.6104 9.96975 11.4698L10.7198 10.7198C10.8604 10.5791 11.0512 10.5 11.25 10.5H13.5C13.9141 10.5 14.25 10.8359 14.25 11.25V12C14.25 12.4141 13.9141 12.75 13.5 12.75C13.0859 12.75 12.75 12.4141 12.75 12H11.5606L11.25 12.3106V14.6895L11.5606 15H12.75C12.75 14.5859 13.0859 14.25 13.5 14.25C13.9141 14.25 14.25 14.5859 14.25 15V15.75C14.25 16.1641 13.9141 16.5 13.5 16.5Z" fill="white"/>
</svg>
