<svg width="24" height="24" viewBox="0 0 24 24" fill="none" xmlns="http://www.w3.org/2000/svg">
<g clip-path="url(#clip0_181_222)">
<path d="M23.1528 19.035L20.0778 13.7025C20.6628 12.51 21.0078 11.1675 21.0078 9.75C21.0078 4.785 16.9728 0.75 12.0078 0.75C7.04281 0.75 3.00031 4.785 3.00031 9.75C3.00031 11.1675 3.33781 12.51 3.93031 13.7025L0.855308 19.035C0.720308 19.275 0.720308 19.5675 0.870308 19.8075C1.02031 20.0475 1.27531 20.175 1.55281 20.16L4.75531 19.95L6.18031 22.83C6.30031 23.0775 6.55531 23.235 6.82531 23.25H6.84781C7.11781 23.25 7.36531 23.1075 7.50031 22.875L10.0128 18.5175C10.6503 18.66 11.3178 18.75 12.0003 18.75C12.6828 18.75 13.3503 18.6675 13.9878 18.5175L16.5003 22.875C16.6353 23.1075 16.8828 23.25 17.1528 23.25H17.1753C17.4528 23.2425 17.7003 23.0775 17.8203 22.83L19.2453 19.95L22.4478 20.16C22.7178 20.1675 22.9878 20.04 23.1303 19.8075C23.2728 19.575 23.2803 19.275 23.1453 19.035H23.1528ZM6.90031 20.91L5.88031 18.84C5.74531 18.57 5.46031 18.4125 5.16031 18.4275L2.85781 18.5775L4.83031 15.1575C5.79031 16.425 7.06531 17.4375 8.55031 18.06L6.90031 20.91ZM4.50031 9.75C4.50031 5.6175 7.86781 2.25 12.0003 2.25C16.1328 2.25 19.5003 5.6175 19.5003 9.75C19.5003 13.8825 16.1328 17.25 12.0003 17.25C7.86781 17.25 4.50031 13.8825 4.50031 9.75ZM18.8478 18.4275C18.5403 18.4125 18.2628 18.57 18.1278 18.84L17.1078 20.91L15.4578 18.06C16.9428 17.4375 18.2253 16.425 19.1778 15.1575L21.1503 18.5775L18.8478 18.4275Z" fill="white"/>
<path d="M14.145 8.91016C14.445 8.48266 14.625 7.96516 14.625 7.41016C14.625 5.96266 13.4475 4.78516 12 4.78516C10.5525 4.78516 9.375 5.96266 9.375 7.41016C9.375 7.97266 9.555 8.48266 9.855 8.91016C8.4675 9.54766 7.5 10.9427 7.5 12.5627C7.5 13.7477 8.4675 14.7227 9.66 14.7227H14.3475C15.54 14.7227 16.5075 13.7552 16.5075 12.5627C16.5075 10.9427 15.54 9.54766 14.1525 8.91016H14.145ZM12 6.28516C12.6225 6.28516 13.125 6.78766 13.125 7.41016C13.125 8.03266 12.6225 8.53516 12 8.53516C11.3775 8.53516 10.875 8.03266 10.875 7.41016C10.875 6.78766 11.3775 6.28516 12 6.28516ZM14.34 13.2227H9.6525C9.2925 13.2227 8.9925 12.9302 8.9925 12.5627C8.9925 11.1677 10.125 10.0277 11.5275 10.0277H12.465C13.86 10.0277 15 11.1602 15 12.5627C15 12.9227 14.7075 13.2227 14.34 13.2227Z" fill="white"/>
</g>
<defs>
<clipPath id="clip0_181_222">
<rect width="24" height="24" fill="white"/>
</clipPath>
</defs>
</svg>
