<svg width="24" height="24" viewBox="0 0 24 24" fill="none" xmlns="http://www.w3.org/2000/svg">
<path d="M6.81284 14.9093C6.62763 14.7277 6.33031 14.7305 6.14871 14.9157C5.96712 15.1008 5.96998 15.3982 6.15513 15.5798L7.39395 16.7949L5.00243 16.3572C4.80026 16.3202 4.59752 16.4189 4.50204 16.6009C4.40651 16.7829 4.44049 17.0059 4.58581 17.1512L6.85282 19.4183C6.94451 19.5099 7.06474 19.5558 7.18493 19.5558C7.30512 19.5558 7.42531 19.5099 7.51704 19.4183C7.70046 19.2348 7.70046 18.9375 7.51704 18.7541L6.31526 17.5524L8.58607 17.968C8.81998 18.0106 9.03888 17.9087 9.1437 17.7086C9.25043 17.505 9.2066 17.2606 9.02881 17.0828L6.81284 14.9093Z" fill="white"/>
<path d="M13.526 11.0958L14.0351 10.5867C14.2185 10.4033 14.2185 10.106 14.0351 9.92254C13.8516 9.73917 13.5544 9.73912 13.3709 9.92254L12.8617 10.4317L12.4199 9.9899L13.0017 9.40818C13.1851 9.22476 13.1851 8.92739 13.0017 8.74401C12.8182 8.56059 12.5209 8.56059 12.3375 8.74401L11.4237 9.65784C11.3356 9.74592 11.2861 9.86536 11.2861 9.98995C11.2861 10.1145 11.3356 10.234 11.4237 10.3221L13.6784 12.5767C13.7701 12.6684 13.8902 12.7142 14.0105 12.7142C14.1306 12.7142 14.2508 12.6684 14.3426 12.5767C14.526 12.3932 14.526 12.0959 14.3426 11.9125L13.526 11.0958Z" fill="white"/>
<path d="M16.7143 8.87246L16.0981 9.48868L15.637 9.02757L16.1833 8.48129C16.3667 8.29786 16.3667 8.00054 16.1833 7.81711C15.9998 7.63369 15.7025 7.63374 15.5191 7.81711L14.9728 8.36339L14.5117 7.90228L15.1279 7.28611C15.3113 7.10269 15.3113 6.80536 15.1279 6.62194C14.9445 6.43852 14.6472 6.43852 14.4637 6.62194L13.5155 7.57022C13.4274 7.6583 13.3779 7.77774 13.3779 7.90233C13.3779 8.02693 13.4274 8.14636 13.5155 8.23444L15.766 10.485C15.8541 10.573 15.9735 10.6225 16.0981 10.6225C16.2227 10.6225 16.3422 10.573 16.4302 10.4849L17.3785 9.53663C17.5619 9.35321 17.5619 9.05588 17.3785 8.87246C17.195 8.68899 16.8976 8.68904 16.7143 8.87246Z" fill="white"/>
<path d="M17.6431 5.69307L17.0968 6.23935L16.6357 5.77824L17.2519 5.16207C17.4354 4.97865 17.4354 4.68132 17.2519 4.4979C17.0685 4.31453 16.7712 4.31448 16.5878 4.4979L15.6395 5.44618C15.5514 5.53426 15.502 5.6537 15.502 5.77829C15.502 5.90288 15.5515 6.02232 15.6395 6.1104L17.89 8.36096C17.9818 8.45265 18.1019 8.49849 18.2222 8.49849C18.3423 8.49849 18.4625 8.45265 18.5543 8.36096L19.5025 7.41268C19.686 7.22926 19.686 6.93193 19.5025 6.74851C19.3192 6.56509 19.0219 6.56509 18.8384 6.74851L18.2222 7.36473L17.761 6.90362L18.3073 6.35734C18.4907 6.17392 18.4907 5.87659 18.3073 5.69317C18.1238 5.50965 17.8265 5.50965 17.6431 5.69307Z" fill="white"/>
<path d="M8.4185 12.6465C7.6092 13.4558 7.6092 14.7727 8.4185 15.582C8.82317 15.9866 9.35468 16.189 9.8862 16.189C10.4178 16.189 10.9493 15.9866 11.3539 15.582C12.1632 14.7727 12.1632 13.4558 11.3539 12.6465C10.5446 11.8372 9.22779 11.8372 8.4185 12.6465ZM10.6897 14.9178C10.2467 15.3609 9.52573 15.3609 9.08262 14.9178C8.63951 14.4747 8.63951 13.7538 9.08262 13.3106C9.30415 13.0891 9.59515 12.9784 9.88615 12.9784C10.1772 12.9784 10.4682 13.0891 10.6897 13.3106C11.1328 13.7538 11.1328 14.4747 10.6897 14.9178Z" fill="white"/>
<path d="M23.7249 5.058L18.942 0.275156C18.7647 0.0977344 18.5288 0 18.2779 0C18.0269 0 17.7911 0.0976875 17.6137 0.275109L16.0444 1.84439C14.6545 1.29234 13.1379 1.02755 11.6376 1.07705C11.3783 1.08562 11.1751 1.3027 11.1837 1.56197C11.1922 1.82114 11.4075 2.02397 11.6686 2.01581C12.9036 1.97475 14.1505 2.16788 15.314 2.57489L13.7711 4.11769C12.5093 3.83597 11.1896 3.85941 9.9373 4.18781C8.55889 4.54936 7.29603 5.27475 6.28518 6.28556C5.27432 7.29642 4.54893 8.55933 4.18738 9.93769C3.85893 11.1899 3.83554 12.5097 4.11725 13.7715L2.57347 15.3153C1.99761 13.678 1.8583 11.923 2.17288 10.1983C2.53761 8.19877 3.49311 6.37927 4.93616 4.93641C5.75455 4.11759 6.69575 3.45394 7.73361 2.96395C7.96818 2.85319 8.06854 2.5733 7.95777 2.33873C7.847 2.10422 7.56716 2.00391 7.33255 2.11458C6.19663 2.65092 5.16683 3.37692 4.27189 4.27233C2.69329 5.8507 1.64793 7.84158 1.24879 10.0298C0.877816 12.0636 1.08421 14.1362 1.844 16.0447L0.274676 17.6141C-0.0915586 17.9803 -0.0915586 18.5762 0.274676 18.9424L5.05761 23.7254C5.24075 23.9085 5.48127 24 5.72179 24C5.9623 24 6.20282 23.9085 6.38596 23.7254L7.95575 22.1556C9.24697 22.6697 10.6131 22.9307 11.9917 22.9307C12.6508 22.9307 13.3128 22.8712 13.9707 22.7512C16.1586 22.3522 18.1495 21.307 19.7281 19.7285C21.3066 18.1499 22.3518 16.159 22.7507 13.9711C23.1216 11.9374 22.915 9.8648 22.155 7.95623L23.7249 6.38639C24.0911 6.02016 24.0911 5.42423 23.7249 5.058ZM5.09591 10.176C5.41522 8.95856 6.0561 7.84294 6.94935 6.94978C7.8425 6.05658 8.95813 5.4157 10.1756 5.09639C11.0846 4.85803 12.0337 4.80206 12.9617 4.92712L4.92664 12.9622C4.80154 12.0341 4.8575 11.085 5.09591 10.176ZM21.8267 13.8026C21.4622 15.8018 20.5068 17.6213 19.064 19.0643C17.621 20.5072 15.8015 21.4626 13.8021 21.8272C12.0775 22.1416 10.3225 22.0021 8.68513 21.4261L10.2285 19.8827C10.8111 20.0128 11.4058 20.0779 12.0006 20.0779C12.6943 20.0779 13.3882 19.9894 14.0623 19.8126C15.4407 19.4511 16.7036 18.7257 17.7144 17.7149C18.7253 16.704 19.4507 15.4411 19.8122 14.0627C20.1406 12.8105 20.1641 11.4907 19.8823 10.2289L21.4257 8.68556C22.0018 10.323 22.1413 12.078 21.8267 13.8026ZM19.073 11.0383C19.1981 11.9664 19.1421 12.9155 18.9037 13.8245C18.5844 15.042 17.9435 16.1576 17.0503 17.0507C16.1571 17.9439 15.0415 18.5848 13.8241 18.9042C12.9151 19.1426 11.966 19.1985 11.0379 19.0735L19.073 11.0383ZM23.0608 5.72222L5.72179 23.0612L0.938848 18.2783L18.2778 0.939281L23.0611 5.72175C23.0611 5.7218 23.061 5.72189 23.0608 5.72222Z" fill="white"/>
<path d="M9.62515 2.29592C9.88024 2.25219 10.0516 2.00989 10.0078 1.75475C9.96405 1.49961 9.7218 1.32828 9.46666 1.37206C9.21157 1.41584 9.04019 1.65809 9.08398 1.91323C9.12776 2.16833 9.37005 2.3397 9.62515 2.29592Z" fill="white"/>
</svg>
